<?xml version="1.0" encoding="UTF-8" standalone="no"?>
<!-- Created with Inkscape (http://www.inkscape.org/) -->

<svg
   xmlns:dc="http://purl.org/dc/elements/1.1/"
   xmlns:cc="http://creativecommons.org/ns#"
   xmlns:rdf="http://www.w3.org/1999/02/22-rdf-syntax-ns#"
   xmlns:svg="http://www.w3.org/2000/svg"
   xmlns="http://www.w3.org/2000/svg"
   xmlns:sodipodi="http://sodipodi.sourceforge.net/DTD/sodipodi-0.dtd"
   xmlns:inkscape="http://www.inkscape.org/namespaces/inkscape"
   width="744.09448819"
   height="1052.3622047"
   id="svg6276"
   version="1.1"
   inkscape:version="0.48.5 r10040"
   sodipodi:docname="New document 5">
  <defs
     id="defs6278" />
  <sodipodi:namedview
     id="base"
     pagecolor="#ffffff"
     bordercolor="#666666"
     borderopacity="1.0"
     inkscape:pageopacity="0.0"
     inkscape:pageshadow="2"
     inkscape:zoom="1.4"
     inkscape:cx="326.78797"
     inkscape:cy="664.10612"
     inkscape:document-units="px"
     inkscape:current-layer="layer1"
     showgrid="false"
     inkscape:window-width="1920"
     inkscape:window-height="988"
     inkscape:window-x="0"
     inkscape:window-y="27"
     inkscape:window-maximized="1" />
  <metadata
     id="metadata6281">
    <rdf:RDF>
      <cc:Work
         rdf:about="">
        <dc:format>image/svg+xml</dc:format>
        <dc:type
           rdf:resource="http://purl.org/dc/dcmitype/StillImage" />
        <dc:title></dc:title>
      </cc:Work>
    </rdf:RDF>
  </metadata>
  <g
     inkscape:label="Layer 1"
     inkscape:groupmode="layer"
     id="layer1">
    <path
       style="fill:none;stroke:#000000;stroke-width:1px;stroke-linecap:butt;stroke-linejoin:miter;stroke-opacity:1"
       d="M 35.71875 28.78125 L 32.84375 210.21875 L 65 210.28125 C 64.998758 209.1549 64.999348 208.0326 65 206.90625 C 65.000902 205.38869 65.000098 203.86131 65 202.34375 C 65.000055 200.85758 65.00001 199.39242 65 197.90625 L 65 196.96875 C 64.99962 160.1992 102.15587 160.1992 102.15625 196.96875 L 102.15625 197.90625 C 102.15626 199.3917 102.15631 200.8583 102.15625 202.34375 C 102.15635 203.86906 102.15716 205.41219 102.15625 206.9375 C 102.1556 208.08489 102.15517 209.22761 102.15625 210.375 L 119.4375 210.40625 C 121.75 178.52141 154.02605 178.55269 156.28125 210.5 L 172.3125 210.53125 C 178.97434 192.63316 198.2442 192.65164 204.875 210.59375 L 514.8125 211.28125 C 521.24812 192.13987 541.65868 192.15877 548.0625 211.34375 L 564.15625 211.375 C 568.43052 184.47412 595.91881 184.49398 600.15625 211.4375 L 613.5625 211.46875 C 613.55635 209.88768 613.55518 208.29957 613.5625 206.71875 C 613.5685 205.28604 613.56252 203.83897 613.5625 202.40625 C 613.5645 199.76731 613.56262 197.13894 613.5625 194.5 C 613.56245 193.09113 613.5625 193.63029 613.5625 192.84375 C 613.5625 156.0742 650.71876 156.0742 650.71875 192.84375 C 650.71875 193.6289 650.7187 193.09202 650.71875 194.5 C 650.71887 197.13951 650.72044 199.76674 650.71875 202.40625 C 650.71873 203.8966 650.72526 205.4159 650.71875 206.90625 C 650.71147 208.45728 650.68042 209.9802 650.6875 211.53125 L 701.4375 211.65625 L 701.4375 28.78125 L 35.71875 28.78125 z "
       id="path6284" />
    <path
       style="fill:none;stroke:#000000;stroke-width:1px;stroke-linecap:butt;stroke-linejoin:miter;stroke-opacity:1"
       d="M 300.71875 667.375 L 202.53125 668.21875 C 201.48166 668.63092 200.37981 668.95776 199.21875 669.1875 C 198.76065 669.27815 198.30768 669.3236 197.84375 669.375 C 197.87823 669.41019 197.02615 669.59314 196.71875 669.65625 C 196.08399 669.78658 195.54681 669.87923 195.0625 669.96875 C 193.08392 670.56378 190.93416 670.86925 188.46875 671.09375 C 187.88305 671.14707 185.83726 670.99707 184.75 670.90625 C 184.53842 670.91525 184.33672 670.9328 184.125 670.9375 C 183.19093 670.9584 182.24672 670.9428 181.3125 670.9375 C 177.13612 671.03995 173.77377 670.11045 170.875 668.5 L 52.15625 669.5 L 54.28125 680.9375 L 52.15625 725.9375 L 302.84375 725.9375 L 300.71875 667.375 z "
       id="path6288" />
    <path
       style="fill:none;stroke:#000000;stroke-width:1px;stroke-linecap:butt;stroke-linejoin:miter;stroke-opacity:1"
       d="M 332.15625 611.65625 L 281.4375 666.65625 L 332.15625 611.65625 z "
       id="path6290" />
    <path
       style="fill:none;stroke:#000000;stroke-width:1px;stroke-linecap:butt;stroke-linejoin:miter;stroke-opacity:1"
       d="M 462.14286,799.50504 405,843.07647"
       id="path6294"
       inkscape:connector-curvature="0" />
    <path
       style="fill:none;stroke:#000000;stroke-width:1px;stroke-linecap:butt;stroke-linejoin:miter;stroke-opacity:1"
       d="m 317.85714,855.21933 2.85715,51.42857 135,0.71428 -4.28572,-65 -137.14286,2.85715 z"
       id="path6296"
       inkscape:connector-curvature="0" />
    <rect
       style="fill:none;stroke:#000000;stroke-width:0.551718;stroke-linecap:square;stroke-linejoin:bevel;stroke-miterlimit:4;stroke-opacity:1;stroke-dasharray:none;stroke-dashoffset:0"
       id="rect6298"
       width="111.21034"
       height="111.21034"
       x="625.98358"
       y="84.91848"
       transform="matrix(0.70012749,0.71401785,-0.70012749,0.71401785,0,0)" />
    <rect
       transform="matrix(0.70710678,0.70710678,-0.70710678,0.70710678,0,0)"
       y="94.369164"
       x="814.20392"
       height="128.05263"
       width="120.98161"
       id="rect34862"
       style="fill:none;stroke:#000000;stroke-width:1.23413515;stroke-linecap:square;stroke-linejoin:bevel;stroke-miterlimit:4;stroke-opacity:1;stroke-dasharray:none;stroke-dashoffset:0"
       ry="0" />
    <path
       style="fill:none;stroke:#000000;stroke-width:1px;stroke-linecap:butt;stroke-linejoin:miter;stroke-opacity:1"
       d="m 386.42857,210.93361 -0.71428,82.14286 c -40,23.57143 -80,47.14285 -120,70.71428 -1.66667,38.57143 -3.33334,77.14286 -5,115.71429 39.28571,9.28571 78.57142,18.57143 117.85714,27.85714"
       id="path35041"
       inkscape:connector-curvature="0"
       sodipodi:nodetypes="ccccc" />
  </g>
</svg>
