<?xml version="1.0" encoding="UTF-8" standalone="no"?>
<!-- Created with Inkscape (http://www.inkscape.org/) -->

<svg
   xmlns:dc="http://purl.org/dc/elements/1.1/"
   xmlns:cc="http://creativecommons.org/ns#"
   xmlns:rdf="http://www.w3.org/1999/02/22-rdf-syntax-ns#"
   xmlns:svg="http://www.w3.org/2000/svg"
   xmlns="http://www.w3.org/2000/svg"
   xmlns:sodipodi="http://sodipodi.sourceforge.net/DTD/sodipodi-0.dtd"
   xmlns:inkscape="http://www.inkscape.org/namespaces/inkscape"
   width="744.09448819"
   height="1052.3622047"
   id="svg2"
   version="1.1"
   inkscape:version="0.48.5 r10040"
   sodipodi:docname="New document 1">
  <defs
     id="defs4" />
  <sodipodi:namedview
     id="base"
     pagecolor="#ffffff"
     bordercolor="#666666"
     borderopacity="1.0"
     inkscape:pageopacity="0.0"
     inkscape:pageshadow="2"
     inkscape:zoom="0.35"
     inkscape:cx="380.71429"
     inkscape:cy="514.28571"
     inkscape:document-units="px"
     inkscape:current-layer="layer1"
     showgrid="false"
     inkscape:window-width="1920"
     inkscape:window-height="988"
     inkscape:window-x="0"
     inkscape:window-y="27"
     inkscape:window-maximized="1" />
  <metadata
     id="metadata7">
    <rdf:RDF>
      <cc:Work
         rdf:about="">
        <dc:format>image/svg+xml</dc:format>
        <dc:type
           rdf:resource="http://purl.org/dc/dcmitype/StillImage" />
        <dc:title></dc:title>
      </cc:Work>
    </rdf:RDF>
  </metadata>
  <g
     inkscape:label="Layer 1"
     inkscape:groupmode="layer"
     id="layer1">
    <path
       style="fill:#ff00ff"
       d="M 481.53125 171.25 C 476.22944 171.25925 470.93066 171.38728 465.65625 171.96875 C 457.05582 173.06949 448.2684 174.58985 440.46875 178.53125 C 421.57894 186.15719 404.82856 198.28716 387.75 209.28125 C 379.22312 215.48605 371.52999 222.71303 364.6875 230.75 C 355.85209 241.99719 345.90727 253.19081 341.5625 267.0625 L 379.78125 248.65625 C 384.78099 235.66 394.54325 225.01105 403.1875 214.28125 C 407.77045 209.27159 412.71624 204.7225 417.96875 200.53125 C 422.469 199.11855 427.10399 198.11656 431.78125 197.34375 C 438.66795 196.32406 445.64791 196.22615 452.59375 196.15625 C 461.09869 196.14695 469.58884 196.157 478.09375 196.1875 C 484.57754 195.91001 490.97147 197.10004 497.3125 198.28125 C 503.57331 200.06729 509.7403 202.45468 515.3125 205.84375 C 519.81152 210.06708 523.81255 214.83882 527.90625 219.46875 C 533.39982 226.54683 539.08776 233.47862 544.84375 240.34375 C 549.46217 246.16346 552.84174 252.7735 556.34375 259.28125 C 559.08947 265.32192 562.76152 270.88955 565.90625 276.71875 C 568.55235 282.43708 571.40794 288.01762 574.09375 293.71875 C 577.47239 300.60758 577.71325 308.3296 578.125 315.84375 C 578.47442 325.80807 578.4213 335.78118 578.375 345.75 C 578.32233 352.86392 578.2776 359.97968 578.25 367.09375 C 577.92838 373.13163 576.88079 379.2412 575.6875 385.1875 C 574.62806 392.35242 572.31817 399.21461 570.9375 406.3125 C 568.91446 414.08804 565.88546 421.53127 562.875 428.96875 C 559.19585 435.75539 555.89136 442.76174 552.03125 449.4375 C 547.95347 456.33673 543.71966 463.16905 539.375 469.90625 C 534.50781 477.60888 528.03766 483.86197 521.375 489.96875 C 520.43111 490.72045 519.51674 491.48993 518.59375 492.25 C 502.74387 500.3644 487.60856 509.90725 472.96875 520.03125 C 466.14263 525.26459 459.21434 530.32696 452.4375 535.625 C 445.67352 541.76867 437.99238 546.77157 430.6875 552.21875 C 425.77744 556.85743 421.04497 561.58905 415.90625 565.96875 C 411.70747 570.78467 407.15593 575.16913 403.28125 580.28125 C 397.89226 587.6684 393.06332 595.36206 388.25 603.125 C 384.59156 609.93907 381.36457 617.03029 378.6875 624.28125 C 374.63966 635.54328 372.96534 647.41938 370.78125 659.125 C 368.82158 668.83633 367.67957 678.68167 367.0625 688.5625 C 366.73489 694.81552 366.743 701.05303 366.75 707.3125 C 366.80789 714.30948 366.80785 721.31538 366.84375 728.3125 C 366.84895 735.99132 366.86775 743.66496 366.84375 751.34375 L 404.59375 732.125 C 404.56845 724.45223 404.5705 716.76654 404.5625 709.09375 C 404.5842 702.07465 404.57155 695.05033 404.59375 688.03125 C 404.58809 681.87069 404.57885 675.71646 404.90625 669.5625 C 405.51013 659.88153 406.64729 650.2404 408.53125 640.71875 C 410.62395 629.12233 412.54959 617.41429 417.125 606.46875 C 420.05737 599.51802 422.88598 592.49534 426.875 586.0625 C 431.61043 578.34888 436.66554 570.81111 442.21875 563.65625 C 446.33389 558.88878 450.68175 554.33157 455.21875 549.96875 C 460.14852 545.5325 464.71863 540.66013 470 536.625 C 477.39753 531.24991 484.71857 525.79111 491.75 519.9375 C 496.8176 516.11607 501.80622 512.18282 506.90625 508.40625 C 525.90756 498.76922 544.65643 488.4997 560.3125 474 C 567.0324 467.63631 573.25742 460.81012 578.0625 452.84375 C 582.35765 445.98815 586.78064 439.21336 590.6875 432.125 C 594.23758 425.17875 598.23007 418.42176 601.25 411.21875 C 604.32118 403.58091 607.29905 395.85718 609.125 387.8125 C 610.66317 380.75511 612.67582 373.80732 613.78125 366.65625 C 614.88964 360.43543 616.17963 354.15617 616.0625 347.8125 C 616.0559 340.72816 616.0253 333.6468 616 326.5625 C 615.96884 316.54391 615.98432 306.51185 615.5625 296.5 C 615.17032 288.4066 614.72016 280.21956 611 272.84375 C 608.30168 267.05663 605.37965 261.38296 602.6875 255.59375 C 599.51632 249.78365 595.91271 244.23391 593.125 238.21875 C 589.46847 231.44973 585.85215 224.62733 581.0625 218.5625 C 575.15685 211.81179 569.58957 204.75348 564.1875 197.59375 C 559.88928 192.63021 555.61487 187.62895 551.03125 182.9375 C 545.28172 178.96832 538.69352 176.57956 532.1875 174.125 C 525.74366 172.42759 518.93602 171.37135 512.28125 171.34375 C 503.79694 171.34315 495.328 171.30515 486.84375 171.28125 C 485.07781 171.27557 483.29852 171.24692 481.53125 171.25 z "
       id="path2989" />
    <path
       style="fill:#ff00ff"
       d="M 698.5 31.84375 C 683.99975 32.473204 669.50873 33.272358 655.09375 35.03125 C 642.19426 36.001759 629.57528 38.146489 617.125 41.75 C 598.22538 47.065919 579.42109 52.672205 560.9375 59.3125 C 532.09313 68.700383 503.73483 79.672343 479.90625 99.5625 C 478.56288 100.94186 477.08931 102.19328 475.875 103.6875 C 470.4768 110.32998 469.24764 119.01111 467.28125 127.0625 L 505.5 108.65625 C 506.8178 100.53896 508.18608 95.263366 512.03125 90.3125 C 517.37095 88.354668 522.80552 86.572888 528.1875 84.75 C 546.55252 78.133928 565.20838 72.477621 584 67.21875 C 596.27059 63.784998 608.66722 61.245702 621.34375 60 C 635.73773 58.31137 650.17936 57.225458 664.65625 56.625 C 675.5037 56.56865 686.30313 57.827714 697.125 58.40625 C 708.22033 59.123785 719.27894 59.017288 730.3125 57.65625 C 733.57366 57.062816 736.80676 56.33357 740 55.5 L 740 40.75 L 740 34.15625 C 737.12129 34.114587 734.22813 33.990791 731.34375 33.8125 C 720.38271 33.301342 709.46795 32.206467 698.5 31.84375 z "
       id="path3005" />
    <path
       style="fill:#ff00ff"
       d="M 740 181.4375 C 727.7064 188.00642 715.37963 194.53169 702.90625 200.75 L 669.625 226.9375 C 684.15926 220.29148 698.11191 212.47036 712.25 205.03125 C 721.03192 200.19051 730.12674 196.06179 740 194.1875 L 740 181.4375 z "
       id="path3007" />
    <path
       style="fill:#ff00ff"
       d="M 745.71875 332.375 C 741.4626 333.52109 737.28975 334.96863 733.25 336.8125 C 707.73099 349.47784 683.13442 364.10933 660.1875 381 L 699.5625 365.34375 C 701.11164 364.20119 702.65289 363.02579 704.21875 361.90625 C 705.01929 361.3339 705.82682 360.80895 706.625 360.25 C 715.40698 356.73371 724.74486 354.91996 734.15625 353.84375 C 738.06784 353.56219 741.91902 353.80266 745.71875 354.40625 C 745.71879 352.42652 745.71864 350.44848 745.71875 348.46875 C 745.71899 343.101 745.71956 337.74276 745.71875 332.375 z "
       id="path3009" />
    <path
       style="fill:#ff00ff"
       d="M 686.4375 549.21875 C 676.69136 549.32644 666.97129 550.00804 657.25 550.78125 L 623.1875 576.09375 C 636.15694 574.5324 649.22156 573.796 662.28125 573.875 C 677.15339 573.8568 691.63736 577.28565 706 580.75 C 718.79348 583.38737 731.14398 587.54322 743.40625 591.96875 C 744.18074 592.26501 744.95187 592.59318 745.71875 592.90625 L 745.71875 581.875 L 745.71875 558.1875 C 743.956 557.76855 742.18465 557.35999 740.40625 557 C 725.88855 553.38157 711.23195 549.60504 696.1875 549.3125 C 692.93704 549.20306 689.68621 549.18285 686.4375 549.21875 z "
       id="path3015" />
    <path
       style="fill:#ff00ff"
       d="M 619.34375 682.71875 C 618.68605 682.72464 618.03705 682.74342 617.375 682.78125 C 604.31715 682.87324 591.26904 682.94501 578.21875 683.4375 C 566.35489 684.06091 554.46166 684.93975 542.8125 687.40625 L 509.0625 713.09375 C 520.65423 710.21921 532.52084 709.06128 544.40625 708.28125 C 557.35445 707.57721 570.3491 707.5392 583.3125 707.5625 C 593.64301 706.94408 603.49321 709.69898 613.3125 712.5 C 625.73969 716.28794 636.6426 723.41192 647.34375 730.5625 C 656.93691 736.9781 665.96814 744.17856 673.90625 752.5625 C 678.755 759.26565 683.69239 765.87466 688.8125 772.375 C 697.33087 781.76116 704.4072 792.18985 711.71875 802.5 C 718.39703 812.60972 725.11006 822.67248 730.40625 833.59375 C 734.88493 841.73495 737.52964 850.85545 742.6875 858.625 C 742.74483 858.71136 742.81681 858.78915 742.875 858.875 L 742.875 858.125 C 742.87499 852.48462 742.87493 846.82788 742.875 841.1875 C 742.875 834.65638 742.87459 828.12488 742.875 821.59375 C 742.87563 814.9585 742.84875 808.32276 742.84375 801.6875 C 742.8438 794.03417 742.8941 786.37207 742.875 778.71875 C 742.86158 777.2065 742.88114 775.69976 742.875 774.1875 C 737.23761 766.14901 731.54834 758.15229 725.0625 750.75 C 719.96158 744.06349 714.94152 737.358 709.90625 730.625 C 701.72223 722.05689 692.52504 714.59465 682.75 707.90625 C 671.73182 700.57019 660.53676 693.17697 647.96875 688.75 C 638.59948 685.99743 629.20927 682.63036 619.34375 682.71875 z "
       id="path3017" />
    <path
       style="fill:#ff00ff"
       d="M 263.0625 156.96875 C 255.2045 157.08713 247.62587 158.92216 240.15625 161.40625 C 214.73871 173.24338 189.8744 187.14154 168.15625 204.96875 C 159.55043 212.46856 151.29158 220.3931 143.71875 228.9375 C 136.68048 236.80701 130.45313 245.30271 124.9375 254.28125 C 121.35943 261.03707 118.11742 268.00459 116.625 275.53125 C 114.75948 284.30461 112.97906 293.1236 111.65625 302 C 110.17231 314.25776 110.11809 326.63804 109.875 338.96875 C 109.53981 348.31047 109.31942 357.48703 111.0625 366.6875 C 114.62847 379.41572 120.3536 391.41662 125.5625 403.53125 C 129.27346 412.83241 133.04859 422.01707 138.5 430.4375 C 145.91584 441.2243 155.21851 450.28297 165.1875 458.65625 C 174.41705 466.13731 184.31039 472.75552 193.71875 480 C 199.8446 484.91962 206.69122 488.61107 213.6875 492.09375 C 225.9442 497.08682 236.50216 505.05534 247.65625 512 C 258.25485 518.54913 269.50693 524.07574 278.34375 533 C 285.29427 540.47857 290.7303 549.12862 296.6875 557.375 C 302.98542 566.41956 309.99302 574.92086 316.78125 583.59375 C 322.52814 590.68926 328.27129 597.66801 333 605.5 C 337.2349 612.10899 341.16691 618.84927 344.65625 625.875 C 348.13568 633.40294 350.92165 641.23262 353.03125 649.25 C 355.40043 656.1295 357.06794 663.14347 357.8125 670.375 C 358.43122 678.6844 358.34185 687.04865 358.40625 695.375 C 358.45545 706.26357 358.4485 717.14284 358.375 728.03125 C 358.93174 738.05526 355.63243 747.52254 353 757.03125 C 351.06226 764.35482 348.9998 770.18685 354.8125 776.09375 L 390.9375 753.53125 C 386.17233 750.95979 390.62192 742.67644 391.09375 738.875 C 393.72869 729.05375 396.59375 719.1696 395.9375 708.875 C 395.8882 697.98167 395.9379 687.11201 396 676.21875 C 396.04284 667.72461 396.08309 659.18872 395.375 650.71875 C 394.47451 643.30835 392.55994 636.13705 390.1875 629.0625 C 387.89246 620.81813 385.08132 612.72185 381.4375 604.96875 C 377.9038 597.8227 373.89055 590.9619 369.53125 584.28125 C 364.65585 576.34803 359.02429 569.08549 353.03125 561.96875 C 346.18781 553.40977 339.13568 544.9961 332.90625 535.96875 C 326.8265 527.56138 321.44103 518.60355 314.3125 511 C 305.22127 501.46606 293.92442 496.09092 282.71875 489.40625 C 271.56106 482.44543 261.23414 474.09777 249.0625 468.875 C 242.31556 465.38361 235.4344 462.16909 229.375 457.5 C 219.96958 450.30213 210.04738 443.79117 200.78125 436.40625 C 191.12677 428.31817 181.91167 419.81153 174.90625 409.21875 C 169.68523 400.95196 166.07766 391.887 162.1875 382.9375 C 157.01627 371.17871 151.29695 359.45913 148.34375 346.90625 C 147.03767 337.95887 147.3238 328.96366 147.375 319.9375 C 147.52683 307.75033 147.70448 295.51255 149.53125 283.4375 C 151.02713 274.63259 152.71288 265.83675 154.8125 257.15625 C 156.78091 250.1519 159.86334 243.47876 163.5625 237.21875 C 169.11357 228.47589 175.55675 220.36918 182.5 212.6875 C 190.2523 204.45857 198.3672 196.54301 207.09375 189.34375 C 209.24835 187.65498 210.64161 186.55666 212.0625 185.46875 C 218.564 183.25412 225.27982 181.72081 232.21875 181.90625 C 239.62272 181.88748 247.00342 181.84514 254.40625 182 C 261.34765 182.23188 268.30533 182.81678 275.0625 184.53125 C 284.40828 186.82518 293.81688 188.8775 302.90625 192.09375 C 312.87095 196.36795 318.3593 200.24358 323.9375 209.96875 C 331.05245 221.49447 337.65004 233.41963 343.0625 245.84375 L 379.9375 224.84375 C 373.7295 212.67618 367.22448 200.61687 360.1875 188.90625 C 354.43675 178.71315 348.50217 173.56115 338.0625 168.71875 C 328.93872 165.0496 319.33738 162.96789 309.84375 160.53125 C 302.97751 158.64601 295.93612 157.67509 288.84375 157.25 C 281.38477 156.95331 273.9008 157.02325 266.4375 157.03125 C 265.30338 156.97421 264.18507 156.95184 263.0625 156.96875 z "
       id="path3021" />
    <path
       style="fill:#ff00ff"
       d="M 96.59375 76.96875 C 86.80706 76.976873 77.101525 78.101157 67.5 80.03125 C 51.987104 83.539479 37.46545 90.043144 23.375 97.25 C 18.568941 99.905907 15.319367 101.72063 12.375 103.375 C 12.706649 106.40507 13.001512 109.43392 13.28125 112.46875 C 20.051895 109.59676 27.004608 107.15077 34.1875 105.375 C 44.779094 102.76506 55.610161 101.5542 66.53125 101.90625 C 73.26302 101.91831 79.994691 101.91932 86.71875 102.28125 C 93.940306 102.78812 101.12123 103.74323 108.21875 105.1875 C 116.49491 105.94954 124.50785 107.82925 132.46875 110.21875 C 144.36627 112.69341 156.15095 115.6571 168.0625 118.0625 L 202.9375 93.875 C 190.87138 91.798705 178.96671 88.918211 167.03125 86.21875 C 158.99727 84.033583 151.01442 81.786331 142.75 80.6875 C 135.58064 79.626454 128.4655 78.376395 121.25 77.65625 C 114.45023 77.043559 107.60179 77.05908 100.78125 77.03125 C 99.380016 76.985734 97.991849 76.96759 96.59375 76.96875 z M 10.8125 105.875 C 10.806456 105.88027 10.777508 105.88487 10.78125 105.90625 C 11.239604 108.5255 11.66072 110.85618 12.0625 113 C 12.384685 112.86061 12.708314 112.73131 13.03125 112.59375 C 12.992835 112.41223 12.940656 112.18907 12.90625 112.0625 C 12.379112 110.12326 11.808596 108.21327 11.15625 106.3125 C 11.106926 106.16877 10.854807 105.83813 10.8125 105.875 z "
       id="path3025" />
    <path
       style="fill:#ff00ff"
       d="M 86.59375 201.6875 C 85.253447 201.67426 83.904412 201.68814 82.5625 201.71875 C 81.028887 201.75373 79.50301 201.81455 77.96875 201.90625 C 69.704051 202.82297 62.026007 206.26433 54.875 210.375 C 48.040531 214.3037 41.218743 218.25201 34.40625 222.21875 C 35.73939 221.4367 37.074784 220.6599 38.40625 219.875 C 37.231156 220.51951 33.534316 222.58194 32 223.46875 C 29.860088 224.70559 27.730481 225.94795 25.59375 227.1875 C 25.576785 228.03184 25.565565 228.87492 25.53125 229.71875 C 25.51702 230.06874 25.469299 231.08735 25.375 230.75 C 25.305395 230.501 25.261795 230.25455 25.21875 230 L 25.65625 234.5625 L 25.65625 234.59375 L 25.6875 234.84375 C 27.249755 233.95492 29.163453 232.83699 30.3125 232.1875 C 33.783104 230.47218 37.105739 228.95578 39.34375 228.21875 C 40.909745 227.70303 42.528933 227.38213 44.125 226.96875 C 55.937685 225.49345 67.74831 226.4107 79.375 228.96875 L 114.46875 205.15625 C 105.30226 202.9503 95.975868 201.78021 86.59375 201.6875 z "
       id="path3027" />
    <path
       style="fill:#ff00ff"
       d="M 19.9375 368.75 C 20.671955 378.91589 21.389814 383.51353 20.0625 394.21875 C 19.923121 395.34289 19.74737 396.4454 19.5625 397.5625 C 27.108616 398.41787 34.669131 399.07674 42.28125 399.09375 L 76.59375 374.1875 C 63.174391 374.71619 49.850196 372.99766 36.59375 371.15625 C 30.976622 370.70691 25.455168 369.7838 19.9375 368.75 z "
       id="path3029" />
    <path
       style="fill:#ff00ff"
       d="M 90.0625 482.75 C 86.40263 482.79372 82.775989 482.95091 79.125 483.375 C 72.72088 484.55117 66.431387 486.90668 60.8125 490.21875 C 23.802229 512.03458 30.163834 505.5257 20 514.84375 L 20 530.21875 L 20 550.0625 C 23.415699 544.1977 26.981509 538.42209 30.875 532.84375 C 36.669783 524.36696 42.468139 515.73246 49.46875 508.1875 C 55.260734 507.60778 61.034543 507.41489 66.90625 507.625 C 77.746569 507.5754 88.597886 507.5142 99.4375 507.6875 L 133.71875 482.75 C 122.83353 482.9214 111.94839 482.863 101.0625 482.8125 C 97.391651 482.78207 93.72237 482.70628 90.0625 482.75 z M 33.96875 513.28125 C 31.992674 514.40858 30.19064 515.45966 28 516.6875 C 27.906305 516.74002 27.891745 516.72437 27.84375 516.75 C 28.501536 516.33675 31.191744 514.75258 32.28125 514.15625 C 32.83775 513.85165 33.404428 513.56954 33.96875 513.28125 z "
       id="path3031" />
    <path
       style="fill:#ff00ff"
       d="M 231.28125 577.5625 C 229.80494 577.56285 228.31364 577.57789 226.84375 577.59375 C 210.613 578.27535 194.70015 580.91103 179.1875 585.65625 C 152.16953 594.87059 127.46984 609.98551 105.03125 627.5 C 92.946002 637.72108 81.085575 648.14576 68.59375 657.875 C 54.642241 667.93407 42.442158 680.23235 31.375 693.34375 C 27.481822 698.36861 23.715889 703.49381 20 708.65625 C 19.999976 714.6197 19.999773 720.59905 20 726.5625 C 20.000191 732.40153 20.000138 738.22347 20 744.0625 C 27.146764 735.52118 33.931974 726.69852 40.21875 717.46875 C 49.852655 703.85627 59.296554 690.10496 69.78125 677.125 C 81.085689 664.31009 93.424654 652.35868 107.34375 642.375 C 119.61116 632.62548 131.29572 622.2058 143.46875 612.34375 C 144.34313 612.00744 145.22121 611.6534 146.09375 611.3125 C 161.32312 606.1215 176.95186 603.03072 193.0625 602.25 C 204.32632 601.87644 215.85922 602.00989 226.75 605.25 C 235.47306 608.51947 243.97044 612.47176 251.03125 618.6875 L 287.03125 596.21875 C 279.49068 589.91403 270.83999 585.44821 261.8125 581.71875 C 252.03397 578.11647 241.61542 577.56005 231.28125 577.5625 z "
       id="path3033" />
    <path
       style="fill:#ff00ff"
       d="M 280.09375 732.75 C 273.4837 732.71523 266.89999 733.0607 260.28125 733.71875 C 248.66232 734.82658 238.04851 739.35608 227.9375 744.90625 C 195.75719 760.97657 179.7234 773.12462 156.1875 796.09375 C 141.56102 810.89071 128.77046 827.38676 117.21875 844.65625 C 104.60325 862.80136 94.054588 882.24443 83.09375 901.40625 C 73.960528 917.6267 63.645132 933.11275 52.53125 948.03125 C 44.212793 958.6567 34.972803 968.52985 24.8125 977.40625 C 19.770804 981.97739 14.526878 986.30737 9.15625 990.46875 C 8.9701246 994.53682 8.6751943 998.55402 8.1875 1002.5 C 8.3956548 1002.376 8.6040024 1002.2481 8.8125 1002.125 C 27.936935 989.86651 46.70477 976.88566 63.5625 961.59375 C 73.585249 952.42236 82.823816 942.37292 90.90625 931.4375 C 101.7496 916.40381 111.74761 900.83875 120.75 884.625 C 131.77453 865.49775 142.49034 846.13626 155.21875 828.0625 C 166.94869 811.04316 179.75298 794.72607 194.59375 780.28125 C 201.03244 774.15209 207.44926 768.01796 214.40625 762.46875 C 214.84477 762.11897 215.33641 761.74193 215.8125 761.375 C 219.31481 760.18566 222.90134 759.26773 226.625 758.71875 C 239.53715 757.16666 252.42334 756.45195 265.34375 758.59375 L 299.9375 734.03125 C 293.32432 733.20451 286.7038 732.78477 280.09375 732.75 z "
       id="path3035" />
    <path
       style="fill:#ff00ff"
       d="M 364.96875 800.5625 C 354.67673 805.12974 344.14436 809.1489 333.9375 813.90625 C 310.09952 824.89507 288.36003 838.64537 268.8125 855.78125 C 260.18514 863.4245 251.37693 870.96815 243.28125 879.1875 C 235.16637 887.75869 228.10012 897.40552 222 907.5 C 216.43904 916.63504 212.43625 926.47699 210.4375 936.96875 C 209.33699 944.05973 209.533 951.25542 209.5625 958.40625 C 209.144 966.19154 210.14344 973.8361 211.125 981.53125 C 212.58615 990.11339 215.6901 998.22718 218.5625 1006.4062 C 222.60373 1017.3515 227.23086 1028.0673 233.15625 1038.125 C 236.75266 1044.0726 240.83999 1049.6854 245.03125 1055.2188 C 249.27133 1055.2187 253.50992 1055.219 257.75 1055.2188 C 268.24333 1055.218 278.75667 1055.2188 289.25 1055.2188 C 291.80358 1055.2163 294.35267 1055.2218 296.90625 1055.2188 C 295.80973 1053.7311 294.72133 1052.2331 293.65625 1050.7188 C 285.65942 1039.4798 276.71802 1028.9072 269.5625 1017.0938 C 263.80282 1007.2525 259.28686 996.78393 255.5 986.03125 C 252.80949 978.08031 249.82561 970.18282 248.5625 961.84375 C 247.5988 954.30757 246.96752 946.79843 247.28125 939.1875 C 247.28836 932.28889 247.24876 925.30712 248.53125 918.5 C 250.77074 908.52326 254.90235 899.22218 260.40625 890.59375 C 266.82475 880.81327 273.84346 871.33398 282.21875 863.125 C 290.54695 855.22017 298.98344 847.38485 307.75 839.96875 C 310.35513 837.76065 312.9555 835.58255 315.625 833.46875 C 320.968 831.22015 326.38878 829.11923 331.75 826.90625 L 364.96875 800.5625 z "
       id="path3037" />
    <path
       style="fill:#ff00ff"
       d="M 740 101.75 C 727.09202 104.12483 714.19802 106.58313 701.34375 109.21875 C 692.39339 110.57845 683.51094 112.08721 674.75 114.40625 C 665.02965 117.22833 655.39879 120.31595 646.21875 124.625 C 635.33671 128.71589 624.96317 134.04998 613.96875 137.84375 L 580.75 164.15625 C 591.62743 159.85563 602.26135 155.03455 613.09375 150.625 C 622.29742 146.57478 631.7121 143.15729 641.3125 140.1875 C 649.98299 137.70927 658.83793 135.98692 667.71875 134.46875 C 682.81542 131.43741 697.94606 128.52464 713.09375 125.75 C 722.04238 124.14655 730.99747 122.74695 740 121.65625 L 740 101.75 z "
       id="path3043" />
    <path
       style="fill:#ff00ff"
       d="M 740.0625 255.28125 C 727.08669 262.65012 714.62205 270.9734 702.625 279.71875 C 692.33642 287.96344 682.46194 296.70329 673.9375 306.8125 L 713 290.28125 C 720.71988 280.83612 730.18293 273.16379 739.6875 265.625 C 740.59636 265.28983 741.51596 264.99531 742.4375 264.71875 C 740.69407 260.44885 740.17999 259.22574 740.0625 255.28125 z "
       id="path3045" />
    <path
       style="fill:#ff00ff"
       d="M 745.71875 441.1875 C 744.56181 441.40111 743.40501 441.60103 742.25 441.8125 C 719.87336 446.33305 697.75987 452.12859 675.28125 456.125 L 641.5 481.53125 C 664.17158 477.01028 686.58899 471.3881 709.25 466.8125 C 721.30193 464.56051 733.44105 462.44903 745.71875 462.25 L 745.71875 459.5 L 745.71875 441.1875 z "
       id="path3047" />
    <path
       style="fill:#ff00ff"
       d="M 745.71875 382.34375 C 740.42049 384.40673 735.12911 386.51375 729.875 388.6875 L 696.8125 414.8125 C 712.86587 407.69863 729.20831 401.29643 745.71875 395.3125 L 745.71875 394.5625 C 745.71875 390.49155 745.71874 386.4147 745.71875 382.34375 z "
       id="path3049" />
    <path
       style="fill:#ff00ff"
       d="M 739.96875 148.90625 C 726.70711 153.01288 713.49712 157.30088 700.1875 161.25 L 666.65625 187.125 C 684.74335 181.53679 702.69367 175.52099 720.78125 169.9375 C 727.14422 168.22258 733.55813 166.73025 740 165.4375 L 740 152.21875 L 740 148.90625 C 739.99047 148.9092 739.97828 148.9033 739.96875 148.90625 z "
       id="path3051" />
    <path
       style="fill:#ff00ff"
       d="M 740 80.5625 C 708.22012 81.083525 676.35102 81.800671 644.875 86.375 C 640.60889 87.359133 636.26785 88.094637 632.0625 89.3125 C 612.03611 95.112112 592.5262 109.04222 575.875 118.5 C 567.67069 123.15999 560.1795 128.83378 552.6875 134.53125 L 591.96875 119 C 592.83304 118.31093 593.67255 117.60253 594.53125 116.90625 C 596.45393 116.01832 598.34965 115.18305 599.5625 114.78125 C 603.72073 113.40367 608.02425 112.46648 612.25 111.3125 C 647.75415 104.75889 684.07065 104.6052 720.0625 104.21875 C 726.71726 104.37297 733.35311 104.3857 740 104.28125 L 740 101.46875 L 740 80.84375 L 740 80.5625 z M 615.09375 103.21875 C 615.06485 103.24882 614.89659 103.36805 614.53125 103.59375 C 611.47537 105.48166 608.33095 107.24546 605.1875 109 C 605.32456 108.91038 605.45591 108.8072 605.59375 108.71875 C 608.12375 107.09534 615.29604 103.00828 615.09375 103.21875 z "
       id="path3053" />
    <path
       style="fill:#ff00ff"
       d="M 687.90625 491.40625 L 653.78125 516.1875 C 684.42737 515.54746 715.06617 515.40401 745.71875 515.40625 L 745.71875 514.40625 L 745.71875 492.125 C 726.44536 492.02881 707.18076 491.82533 687.90625 491.40625 z "
       id="path3055" />
    <path
       style="fill:#ff00ff"
       d="M 621.8125 632.78125 L 587.09375 656.84375 C 611.12212 661.3193 634.83658 667.15249 658.65625 672.59375 C 672.28788 675.70598 685.69379 679.69584 698.59375 685.09375 C 708.6473 689.23427 718.0244 694.69031 727.0625 700.6875 C 733.67893 705.31501 739.80308 710.57902 745.71875 716.0625 L 745.71875 715.40625 L 745.71875 683.8125 L 745.71875 667.625 C 741.78006 665.49662 737.75507 663.52659 733.625 661.75 C 720.43625 656.02854 706.62167 652.0255 692.5625 649.03125 C 680.08917 646.38585 667.73457 643.40143 655.3125 640.53125 C 646.9377 638.59621 638.45849 637.0718 630.09375 635.09375 C 627.29927 634.43293 624.58089 633.54398 621.8125 632.78125 z M 758.875 695.1875 C 754.30575 701.80084 754.07739 702.01272 753.78125 704.6875 C 755.25506 702.00573 756.91018 698.97323 758.875 695.1875 z "
       id="path3057" />
    <path
       style="fill:#ff00ff"
       d="M 128.375 128.46875 C 118.18521 129.14092 108.00775 130.13112 97.8125 130.75 C 90.936152 130.71808 84.202288 131.70047 77.4375 132.78125 C 69.396894 134.27102 61.490098 136.56515 53.65625 138.90625 C 44.244076 140.98964 35.726726 145.46177 27.21875 149.8125 C 24.039224 151.19021 20.871244 152.60329 17.71875 154.03125 C 18.352048 157.57288 18.91672 161.17561 19.5625 164.9375 C 19.771871 164.88878 19.977027 164.82673 20.1875 164.78125 C 27.910919 162.44602 35.640735 160.17266 43.46875 158.25 C 50.246683 157.30127 56.914689 155.56753 63.8125 155.78125 C 73.907916 155.17588 83.960409 154.33025 94.03125 153.40625 L 128.375 128.46875 z M 12.78125 159.0625 C 12.89029 159.28159 13.358292 160.18431 13.78125 161.03125 C 13.762723 160.93817 13.737396 160.87511 13.71875 160.78125 C 12.87205 159.19237 12.632873 158.76438 12.78125 159.0625 z "
       id="path3059" />
    <path
       style="fill:#ff00ff"
       d="M 22.71875 310.03125 L 23.5625 320.3125 C 23.139381 325.3782 22.983583 330.45569 22.375 335.5 C 27.95692 335.75343 33.542521 336.00851 39.125 336.25 L 73.375 311.34375 C 56.494179 311.34976 39.598382 310.66273 22.71875 310.03125 z "
       id="path3061" />
    <path
       style="fill:#ff00ff"
       d="M 53.25 440.09375 C 41.244475 441.29985 29.211248 441.88489 17.15625 442.25 C 17.157525 446.51619 17.140468 450.76524 17.09375 455.03125 C 17.089014 458.4944 17.155547 461.97284 17.21875 465.4375 C 17.886137 465.3982 18.551449 465.354 19.21875 465.3125 L 53.25 440.09375 z "
       id="path3063" />
    <path
       style="fill:#ff00ff"
       d="M 161.46875 540.125 C 134.27333 542.7907 107.49357 549.04041 80.875 555.0625 C 60.526126 559.92781 40.166029 564.82077 20 570.40625 L 20 583.78125 L 20 586.5 C 29.584082 584.08007 39.19964 581.75261 48.8125 579.46875 C 72.351188 574.14938 60.943689 576.5454 83.5 572.125 C 95.625166 569.74882 107.94597 566.9525 120.25 565.59375 C 122.64228 565.32953 125.06409 565.38339 127.46875 565.28125 L 161.46875 540.125 z "
       id="path3065" />
    <path
       style="fill:#ff00ff"
       d="M 248.375 688.46875 C 231.46319 690.25225 214.5594 692.12027 197.75 694.71875 C 183.7234 696.7643 169.83644 699.53027 156.1875 703.34375 C 134.36855 710.05252 114.97383 723.96865 95.65625 735.28125 C 86.973708 741.91129 79.978444 750.34197 72.875 758.5625 C 55.324982 778.84266 37.961045 799.25805 20.625 819.71875 C 20.853817 826.52965 20.339407 831.87457 17.3125 842.5 C 17.11911 844.73684 16.876219 846.96398 16.5625 849.1875 C 26.537596 839.45731 36.133842 829.34574 45.125 818.65625 C 66.891243 792.98592 88.896617 767.54069 111.28125 742.40625 C 115.5519 737.70328 119.80663 732.9227 124.40625 728.53125 C 137.56499 724.81665 150.81114 721.57031 164.40625 719.78125 C 180.86503 716.93294 197.44425 715.27799 214.03125 713.40625 L 248.375 688.46875 z "
       id="path3067" />
    <path
       style="fill:#ff00ff"
       d="M 302.625 775.4375 C 301.52828 776.05074 298.10657 777.98114 296.65625 778.75 C 293.93541 780.19239 291.19992 781.60767 288.4375 782.96875 C 276.70426 788.74987 264.71151 793.7009 252.5625 798.53125 C 226.70915 808.41162 200.61172 817.68506 175.21875 828.71875 C 153.85007 838.2207 133.52501 850.03467 113.9375 862.78125 C 103.02737 869.88102 115.04774 862.61584 104.15625 869.03125 C 96.992403 873.40654 91.05475 878.92544 88.4375 887 C 85.458267 895.5382 84.214781 904.64794 83.0625 913.59375 C 82.058712 927.58911 81.101377 941.56803 80.03125 955.5625 C 78.422848 970.8054 74.788602 985.67877 70.78125 1000.4375 C 66.493086 1016.5668 60.935332 1032.2564 53.25 1047 C 56.37843 1047.2874 59.510079 1047.5646 62.625 1047.9688 C 65.175498 1048.2997 68.444995 1047.5459 70.1875 1049.4375 C 70.252647 1049.5082 70.262028 1049.5673 70.28125 1049.625 C 71.150378 1049.6196 72.006371 1049.5849 72.875 1049.5938 C 74.647826 1049.614 76.439415 1049.6539 78.21875 1049.6875 C 81.379512 1045.7708 84.363543 1041.707 87.125 1037.4688 C 96.596257 1020.1649 103.14626 1001.5863 108.3125 982.5625 C 112.46595 967.56533 116.18289 952.40181 117.46875 936.84375 C 118.53688 922.88838 119.40134 908.92165 120.8125 895 C 122.138 886.28992 123.56003 877.42629 126.96875 869.25 C 130.2834 863.03543 135.64749 858.7145 141.53125 855.03125 C 141.915 854.85561 142.32564 854.66038 142.6875 854.5 C 168.12687 843.01159 194.32392 833.38138 220.5 823.71875 C 252.31774 811.64758 282.39143 797.00789 310.9375 778.125 L 271.5 793.5625 C 281.8815 787.52179 292.2733 781.52915 302.625 775.4375 z "
       id="path3069" />
    <path
       style="fill:#ff00ff"
       d="M 449.25 777.5625 L 414.71875 802.125 C 427.54266 803.13941 440.33563 804.81788 452.96875 807.25 C 478.7761 813.78438 502.39924 826.67813 526 838.625 C 565.30207 857.87015 602.30771 881.21174 637.90625 906.5625 C 655.39483 918.84049 670.27431 933.87888 683.34375 950.65625 C 692.82403 964.04625 701.69268 977.81242 709.8125 992.0625 C 714.67505 1000.6169 719.03812 1009.4205 723.15625 1018.3438 C 728.7307 1016.0618 734.32227 1013.8495 740 1011.8438 C 739.99639 1004.8735 739.9783 997.90834 740 990.9375 C 740.00048 982.06298 739.87332 973.18591 740.03125 964.3125 C 740.06085 963.37512 740.085 962.437 740.125 961.5 C 740.12616 961.47221 740.12328 961.41642 740.125 961.375 C 733.61965 950.38152 726.69719 939.66265 719.25 929.25 C 705.7121 912.15724 690.15317 897.08525 671.96875 884.875 C 635.80584 860.06477 598.68505 836.59089 559.625 816.5625 C 536.19459 804.25541 512.87096 790.8687 487.375 783.28125 C 474.79973 780.59154 462.01245 779.06862 449.25 777.5625 z "
       id="path3071" />
    <path
       style="fill:#ff00ff"
       d="M 601.0625 729.6875 C 599.7644 729.70802 598.44754 729.80688 597.125 729.96875 C 583.03723 732.30301 569.15724 735.61984 555.28125 738.96875 L 521.5 764.375 C 535.45945 761.1139 549.36756 757.72047 563.5 755.28125 C 573.572 753.45528 583.01779 756.18787 592.53125 759.1875 C 604.35318 763.72454 616.32068 767.7558 628.28125 771.90625 C 646.27264 778.90482 660.95568 791.48132 675.40625 803.90625 C 690.48419 817.20184 705.85645 830.23601 720.1875 844.34375 C 727.50487 852.36127 735.14547 860.07556 742.875 867.6875 L 742.875 858.125 C 742.87499 852.48462 742.87493 846.82788 742.875 841.1875 C 742.875 834.65638 742.87459 828.12488 742.875 821.59375 C 742.87535 817.8855 742.84418 814.177 742.84375 810.46875 C 732.18134 800.84763 721.13946 791.61487 710.34375 782.15625 C 695.70332 769.41865 681.13241 756.16571 663.125 748.34375 C 651.16328 744.10107 638.99429 740.52842 627.28125 735.59375 C 618.68868 732.63657 610.14917 729.54383 601.0625 729.6875 z "
       id="path3073" />
    <path
       style="fill:#ff00ff"
       d="M 388.46875 843.53125 L 348.90625 858.875 C 340.70288 864.1999 334.55617 871.53457 328.46875 879.03125 C 324.17988 886.15462 319.44557 892.9537 314.75 899.8125 C 309.69899 905.97197 306.43782 912.98059 304.78125 920.71875 C 303.65376 927.28673 303.84865 933.95961 303.90625 940.59375 C 304.54224 951.3232 306.48378 961.80273 308.75 972.28125 C 310.71232 979.88287 312.67169 987.6664 316.375 994.65625 C 317.527 996.8306 320.61175 1001.3619 322.03125 1003.5 C 328.06623 1011.9723 334.26236 1020.3157 340.65625 1028.5312 C 346.55441 1035.5798 352.54819 1042.5331 357.5625 1050.25 C 358.49555 1051.845 359.29571 1053.499 360 1055.1875 C 361.62122 1055.237 363.25475 1055.3012 364.875 1055.375 C 367.55342 1055.497 369.29762 1055.5175 370.375 1055.5625 C 370.44078 1055.5433 370.43356 1055.5506 370.5 1055.5312 C 377.98868 1054.4751 385.45332 1053.2201 392.96875 1052.375 C 394.86105 1052.1622 396.78328 1052.3751 398.6875 1052.375 C 399.63584 1052.375 400.58291 1052.375 401.53125 1052.375 C 400.17309 1044.2186 398.36762 1036.0583 394.03125 1028.9375 C 388.98325 1021.0856 382.94383 1014.0133 376.875 1006.9375 C 370.47598 998.85302 364.38601 990.51178 358.40625 982.125 C 351.82027 972.48775 348.07819 963.98781 345.8125 952.40625 C 343.63457 942.1735 341.91196 931.89322 341.59375 921.40625 C 341.67794 915.0496 341.609 908.60777 343.03125 902.375 C 345.09983 895.16241 348.91087 888.88804 353.5 882.96875 C 358.24092 876.21588 362.45163 869.1157 367.375 862.5 C 373.494 855.16845 380.15426 848.41393 388.46875 843.53125 z M 367.15625 1056.5 C 366.63009 1056.5946 366.13157 1056.6621 365.53125 1056.7812 C 364.96266 1056.8938 362.92498 1057.5293 361.09375 1058.0938 C 361.10867 1058.1371 361.14144 1058.1754 361.15625 1058.2188 C 362.32952 1057.8922 364.75205 1057.1945 367.15625 1056.5 z "
       id="path3075" />
    <path
       style="fill:#ff00ff"
       d="M 449.875 834.6875 L 415.46875 859.28125 C 439.79994 860.98373 463.52795 866.97376 486.8125 873.9375 C 503.95772 879.19395 520.27995 886.41657 534.75 897.03125 C 544.3054 905.01334 552.00585 914.91157 557.9375 925.8125 C 563.9983 937.76088 566.25049 950.97456 568.6875 964 C 571.42473 978.37758 572.13778 992.99951 572.5625 1007.5938 C 572.83351 1019.9976 572.7762 1032.407 572.6875 1044.8125 C 572.62122 1046.3717 572.58183 1047.9151 572.5625 1049.4688 C 578.38166 1049.4242 584.18275 1049.4308 590 1049.5 C 596.57712 1048.524 603.77218 1048.014 610.96875 1047.7812 C 610.21136 1040.4466 610.03966 1033.0938 610.25 1025.6875 C 610.18688 1013.2876 610.15263 1000.8642 609.78125 988.46875 C 609.24437 973.67973 608.54158 958.8644 605.625 944.3125 C 603.15173 930.83319 600.64335 917.23029 594.40625 904.875 C 588.11899 893.46903 580.04443 883.09412 570.09375 874.625 C 555.26421 863.5023 538.4845 856.04143 520.71875 850.78125 C 497.5055 843.85554 473.94009 837.80351 449.875 834.6875 z "
       id="path3077" />
    <path
       style="fill:#ff00ff"
       d="M 426.65625 889.875 L 388.4375 908.09375 C 385.29712 920.42938 383.42798 933.01029 382.125 945.65625 C 380.98248 953.75711 382.26294 961.74435 384.1875 969.59375 C 386.85898 979.42952 392.68703 987.85422 398.375 996.15625 C 406.71301 1008.9293 415.56641 1021.318 423.15625 1034.5625 C 426.3279 1040.3837 429.33949 1046.3149 432.125 1052.3438 C 435.48015 1052.3422 438.83235 1052.3486 442.1875 1052.3438 C 449.18203 1052.3439 456.19348 1052.4252 463.1875 1052.4062 C 468.0257 1052.2744 472.97411 1052.0295 477.90625 1052.0938 C 476.66999 1049.4761 475.46011 1046.8325 474.34375 1044.1562 C 470.01784 1033.6812 464.90571 1023.5621 459.40625 1013.6562 C 451.69736 1000.3818 442.76758 987.91747 434.59375 974.9375 C 429.37175 966.90701 423.72246 958.902 421.46875 949.4375 C 419.70395 942.05399 418.82151 934.52403 419.8125 926.9375 C 421.08823 914.42157 422.98681 901.94072 426.65625 889.875 z M 479.125 1054.6875 C 474.08969 1056.1641 466.72646 1058.5807 470.09375 1057.7812 C 473.56854 1056.9562 476.58377 1056.1533 479.46875 1055.375 C 479.35727 1055.1442 479.23617 1054.9184 479.125 1054.6875 z "
       id="path3079" />
  </g>
</svg>
