<?xml version="1.0" encoding="UTF-8" standalone="no"?>
<!-- Created with Inkscape (http://www.inkscape.org/) -->

<svg
   xmlns:dc="http://purl.org/dc/elements/1.1/"
   xmlns:cc="http://creativecommons.org/ns#"
   xmlns:rdf="http://www.w3.org/1999/02/22-rdf-syntax-ns#"
   xmlns:svg="http://www.w3.org/2000/svg"
   xmlns="http://www.w3.org/2000/svg"
   xmlns:sodipodi="http://sodipodi.sourceforge.net/DTD/sodipodi-0.dtd"
   xmlns:inkscape="http://www.inkscape.org/namespaces/inkscape"
   width="744.09448819"
   height="1052.3622047"
   id="svg2"
   version="1.1"
   inkscape:version="0.48.5 r10040"
   sodipodi:docname="New document 1">
  <defs
     id="defs4" />
  <sodipodi:namedview
     id="base"
     pagecolor="#ffffff"
     bordercolor="#666666"
     borderopacity="1.0"
     inkscape:pageopacity="0.0"
     inkscape:pageshadow="2"
     inkscape:zoom="0.35"
     inkscape:cx="380.71429"
     inkscape:cy="514.28571"
     inkscape:document-units="px"
     inkscape:current-layer="layer1"
     showgrid="false"
     inkscape:window-width="1920"
     inkscape:window-height="988"
     inkscape:window-x="0"
     inkscape:window-y="27"
     inkscape:window-maximized="1" />
  <metadata
     id="metadata7">
    <rdf:RDF>
      <cc:Work
         rdf:about="">
        <dc:format>image/svg+xml</dc:format>
        <dc:type
           rdf:resource="http://purl.org/dc/dcmitype/StillImage" />
        <dc:title></dc:title>
      </cc:Work>
    </rdf:RDF>
  </metadata>
  <g
     inkscape:label="Layer 1"
     inkscape:groupmode="layer"
     id="layer1">
    <path
       style="fill:#ff00ff"
       id="path2985"
       d="m 290.87571,375.32913 c 9.48998,-14.14333 22.2564,-25.41546 35.04444,-36.45813 11.319,-9.76367 22.75359,-19.3998 34.56424,-28.56584 6.51011,-5.08698 13.34004,-9.71031 20.27008,-14.19708 20.74939,-9.09451 38.69554,-24.76261 60.05824,-32.84785 6.94907,-2.81604 13.69906,-6.05984 21.00603,-7.84358 5.92886,-0.71311 11.62717,-2.4194 17.5353,-3.28943 5.78961,-0.54147 11.68303,-1.28407 17.44271,-0.28784 6.9386,1.17576 13.87394,3.2991 19.91237,6.94133 8.6597,4.23033 14.80826,11.91668 20.46325,19.4802 6.20221,7.92655 11.51935,16.46382 15.79322,25.57121 4.17395,9.19609 7.31029,18.77585 9.54944,28.61108 1.61888,7.33127 1.99182,14.81791 2.0926,22.29679 0.0665,8.62896 -0.0104,17.25831 -0.0606,25.88719 -0.18413,13.694 -3.48634,26.89126 -8.00393,39.72716 -5.11683,14.27193 -12.61642,27.42065 -21.15785,39.88325 -6.48909,9.02596 -13.87075,17.29593 -21.98605,24.87467 -8.75857,7.57569 -18.44203,14.00401 -27.79474,20.81979 -21.03331,14.29805 -43.58115,26.44768 -65.55046,39.14448 60.28264,-35.17222 29.28675,-17.51809 16.61279,-8.19582 -3.21788,2.3669 -5.80457,4.58702 -8.87953,7.13598 -9.54479,8.25201 -17.61987,17.99903 -26.11616,27.28703 -13.72052,14.54755 -23.52795,31.91686 -33.3182,49.19021 -11.16583,19.8329 -20.13345,40.70892 -26.78865,62.45187 -4.19041,14.68793 -5.26118,29.914 -5.77924,45.0956 -0.16419,14.82268 -0.44452,29.65849 0.18972,44.472 0.66243,13.64177 2.02013,27.27246 4.33779,40.73463 0,0 -37.15261,19.7238 -37.15261,19.7238 l 0,0 c -2.28598,-13.65849 -3.5991,-27.47172 -4.34658,-41.29623 -0.80588,-14.89179 -0.46074,-29.82445 -0.39496,-44.7333 0.38605,-15.5517 1.48218,-31.1225 5.561,-46.21381 6.5907,-22.13897 15.76556,-43.3258 26.98218,-63.53025 9.57016,-17.26033 18.59031,-34.96583 32.02855,-49.65085 8.44749,-9.3947 16.71097,-18.98408 25.78352,-27.78291 2.93854,-2.46317 5.7453,-5.08598 8.75978,-7.45562 16.92416,-13.3038 37.59888,-22.01139 55.21102,-33.70133 -63.52937,36.74398 -20.45115,12.25486 -6.27121,2.80072 9.36152,-6.67452 18.81768,-13.299 27.8402,-20.39002 8.49812,-7.08696 15.82959,-15.35744 22.59623,-24.09423 8.91074,-11.96484 16.44973,-24.96269 21.79426,-38.92005 4.60511,-12.31144 7.9638,-25.00101 8.24019,-38.22824 -0.01,-8.58699 0.0165,-17.17397 -0.0262,-25.76086 -0.11877,-7.22362 -0.27076,-14.47708 -1.62026,-21.59975 -1.95767,-9.59217 -4.98822,-18.88738 -9.04275,-27.80852 -4.11921,-8.84901 -9.32828,-17.1173 -15.31251,-24.82813 -5.45566,-7.14504 -11.35017,-14.04037 -19.71641,-17.84379 -5.97192,-2.91108 -12.39817,-4.89937 -19.03927,-5.49065 -5.60725,-0.14335 -11.22793,0.27398 -16.75918,1.21695 -5.75984,1.11657 -11.50744,2.33911 -17.22656,3.6282 -7.01541,2.28048 -13.71621,5.40593 -20.57254,8.1132 -15.6637,6.94641 -51.43963,28.82657 12.53212,-8.68458 -6.89629,4.60778 -14.02091,8.86679 -20.53713,14.0248 -12.26478,8.87096 -23.70132,18.85141 -35.29875,28.56156 -12.50722,10.67509 -25.15939,21.30092 -34.63987,34.90859 0,0 -38.80907,17.1164 -38.80907,17.1164 z"
       inkscape:connector-curvature="0" />
    <path
       style="fill:#ff00ff"
       id="path2993"
       d="m 294.24747,348.86772 c -4.0744,-8.38955 -10.41356,-15.36328 -17.30027,-21.55202 -5.75922,-5.21686 -12.01597,-9.73083 -18.44351,-14.072 -5.01878,-4.70793 -11.06243,-7.08754 -17.55555,-8.95145 -6.56835,-1.7038 -13.34895,-2.1041 -20.10021,-2.30642 -6.91686,-0.007 -13.84611,-0.43161 -20.72291,0.39596 -7.4295,0.52302 -14.49809,2.85042 -21.79111,4.17005 -6.53098,1.77036 -12.80571,4.23286 -19.13502,6.58354 -15.33242,6.99054 -44.14381,24.09614 20.39408,-12.75509 -5.59621,2.8978 -10.30059,6.99517 -14.8483,11.28486 -3.42392,3.4611 -6.91681,6.84456 -9.99819,10.61888 -4.03958,4.58351 -6.37687,9.87214 -8.39001,15.56508 -2.76178,9.10945 -4.63952,18.44885 -7.15644,27.64146 -3.06029,11.24309 -4.78601,22.78112 -7.14715,34.17891 -2.39929,10.11155 -3.61712,20.40662 -4.27803,30.75886 -0.90653,8.80494 0.0594,17.29991 2.91118,25.64661 2.89557,8.2522 6.98059,15.70028 12.20708,22.65886 5.02755,6.7523 10.98608,12.63885 17.26852,18.20141 7.44648,6.44445 15.23568,12.48589 23.13029,18.36973 6.36066,5.56262 14.10698,8.94202 21.30857,13.19029 7.99563,4.56314 15.13579,10.34609 22.80314,15.41331 8.60948,6.47446 16.29253,14.02509 23.03972,22.4 6.65301,9.43328 14.18789,18.16204 21.35777,27.18876 8.12359,10.32198 15.63346,21.22884 22.181,32.62322 4.16012,7.91968 7.55017,16.1835 10.90176,24.4623 3.21968,7.25983 6.62128,14.45988 9.57377,21.83434 3.02738,6.76818 6.41456,13.28271 8.44009,20.4437 2.20094,6.15914 3.43355,12.48085 4.00283,18.97636 0.54458,7.52617 0.54065,15.07465 0.57702,22.61574 -0.91996,10.87748 -1.8995,21.7405 -2.42706,32.64736 -0.58871,8.66657 -0.10521,17.37333 -0.70983,26.03269 -0.61055,4.83175 -0.29727,2.42977 -0.93924,7.20602 0,0 -38.00308,18.72427 -38.00308,18.72427 l 0,0 c 0.64439,-4.73383 0.31694,-2.3733 0.98219,-7.08161 1.21456,-8.56738 0.28903,-17.33316 1.05225,-25.95147 0.56249,-10.79518 1.29954,-21.57819 2.30934,-32.34147 0.009,-7.43685 0.0103,-14.88068 -0.4157,-22.30783 -0.50175,-6.24793 -1.51419,-12.37404 -3.70995,-18.28075 -1.77331,-7.07987 -5.11565,-13.43812 -8.10793,-20.05716 -2.92077,-7.37701 -6.3092,-14.5764 -9.55715,-21.81292 -3.29478,-8.1096 -6.47486,-16.26828 -10.40361,-24.10494 -6.33566,-11.2528 -13.6688,-22.00805 -21.74602,-32.07976 -7.35671,-8.88643 -14.76371,-17.71163 -21.47174,-27.11012 -6.57662,-7.98633 -14.03139,-15.21688 -22.4436,-21.27504 -7.58998,-5.05817 -14.76428,-10.73456 -22.78238,-15.12565 -7.38091,-4.21489 -15.01542,-8.04172 -21.47293,-13.67746 -7.93817,-6.0058 -15.83031,-12.10411 -23.31998,-18.66349 -6.47043,-5.7808 -12.69098,-11.85526 -17.8283,-18.88613 -5.35615,-7.35914 -9.669015,-15.17715 -12.726539,-23.79087 -3.255445,-8.76857 -4.685202,-17.79714 -3.683816,-27.15554 0.566211,-10.55685 1.668369,-21.07232 4.098145,-31.38416 2.522308,-11.43586 4.15025,-23.05135 7.07748,-34.39982 2.48951,-9.24654 4.55369,-18.50749 6.72517,-27.8109 2.09832,-5.743 3.2817,-12.03566 7.78858,-16.51096 2.56853,-4.33394 6.1186,-7.87475 9.79411,-11.26576 4.16155,-4.75644 8.9533,-9.02977 14.34608,-12.36234 17.13286,-9.80104 34.12932,-21.19942 52.66562,-28.61322 6.39281,-2.41692 12.88995,-4.64437 19.58913,-6.04997 7.27645,-1.53742 14.50525,-3.34908 21.97112,-3.73051 7.04448,-0.36529 14.10892,-0.30234 21.1574,-0.0326 6.97826,0.41584 13.96096,1.16484 20.6688,3.24664 6.73156,2.27313 12.89608,5.18348 18.20757,10.0341 6.51429,4.54697 12.99719,9.1129 18.76985,14.6053 6.93605,6.67179 13.36813,13.93763 17.97476,22.44437 0,0 -36.65886,21.33643 -36.65886,21.33643 z"
       inkscape:connector-curvature="0" />
    <path
       style="fill:#ff00ff"
       id="path3001"
       d="m 320.27739,309.99388 c 5.72904,7.50885 12.49097,14.14557 17.32985,22.29294 0,0 -36.6654,21.18975 -36.6654,21.18975 l 0,0 c -4.61266,-8.07671 -11.25326,-14.68891 -17.11807,-21.8493 0,0 36.45362,-21.63339 36.45362,-21.63339 z"
       inkscape:connector-curvature="0" />
    <path
       style="fill:#ff00ff"
       id="path3003"
       d="m 208.11081,768.37283 c -8.4435,-3.87022 -16.93334,-7.69452 -25.88047,-10.24944 -2.81293,-0.61302 -3.95511,-1.12681 -6.80145,-0.78304 -12.12789,1.46474 -52.06329,27.3793 25.19559,-16.25453 -5.19441,2.51917 -8.36783,6.39638 -10.58714,11.61893 -2.37368,7.20073 -2.39632,14.88942 -2.60721,22.39376 -0.62025,7.66777 -1.71332,15.27893 -2.28872,22.95333 -0.21725,6.56758 -1.74688,12.97756 -2.52398,19.48519 -0.76281,6.32177 -0.54511,12.70181 -1.07803,19.03498 -0.65501,8.02802 -2.91651,15.5336 -6.17215,22.85445 -2.96452,7.16447 -7.12238,13.57449 -12.03006,19.53002 -15.66375,15.08815 -35.5859,26.44615 -56.65215,32.01972 -8.614647,1.84479 -17.131297,3.78925 -25.910377,4.67488 -7.271138,0.63764 -14.577431,0.61858 -21.8702,0.64661 -6.075668,-0.29226 -12.283805,0.6484 -18.266528,-0.5756 0,0 34.719285,-24.51694 34.719285,-24.51694 l 0,0 c 5.932956,0.33221 11.886283,0.0747 17.825789,0.15932 7.186431,-0.0504 14.387141,-0.14264 21.534111,-0.9801 8.57486,-1.13488 17.00129,-3.08644 25.38412,-5.1988 1.4745,-0.49179 2.97355,-0.91532 4.42349,-1.47538 1.45962,-0.56379 5.6329,-2.7052 4.29576,-1.89253 -59.454264,36.13406 -36.14739,22.6364 -24.63142,13.52225 5.47001,-5.19918 9.70314,-11.50025 12.72165,-18.4225 3.47589,-6.83541 6.03098,-13.82587 6.57402,-21.54508 1.06635,-6.25718 0.33447,-12.69254 1.15737,-18.9963 0.62714,-6.50911 2.08251,-12.86383 2.60928,-19.36266 0.53533,-7.62754 1.39831,-15.21604 2.44345,-22.78972 0.11753,-7.86436 0.22328,-15.85306 1.90627,-23.56036 1.68754,-5.71137 4.01448,-11.21812 9.40075,-14.34995 5.49823,-3.11821 32.06061,-24.90021 48.93208,-23.59787 2.78267,0.2148 4.562,0.84767 7.24739,1.58645 9.01493,3.01256 17.66605,6.97411 26.3825,10.74408 0,0 -35.45302,23.32683 -35.45302,23.32683 z"
       inkscape:connector-curvature="0" />
    <path
       style="fill:#ff00ff"
       id="path3005"
       d="m 165.20821,683.76912 c -9.10479,-1.77953 -18.36648,-4.12389 -27.69795,-3.71577 -5.22294,0.64142 -9.85794,3.12347 -15.08864,4.03382 -13.98743,6.62371 -3.95672,1.93191 32.86611,-18.72295 0.59268,-0.33245 -1.15936,0.70967 -1.72786,1.08197 -1.95498,1.28026 -3.56108,2.58749 -5.14897,4.2971 -3.84366,4.80356 -7.47829,9.65874 -10.60043,14.97049 -2.45017,4.92112 -5.01514,9.73511 -6.36449,15.08465 -1.25303,7.4157 -1.18052,14.97805 -1.26079,22.47561 -0.0532,9.06845 0.0276,18.13712 0.0678,27.20553 0.0397,6.7366 0.0692,13.47325 0.0844,20.20996 0.14147,5.53421 0.20513,10.98265 -1.22615,16.35848 -7.75281,17.4719 -28.72717,26.74196 -46.804308,30.85467 -5.94654,2.31907 -12.237592,3.25878 -18.557924,3.78888 -5.844301,0.37462 -11.704227,0.34426 -17.557544,0.33948 -6.010386,0.10523 -11.772016,0.37936 -17.480486,-1.67927 -4.054158,-2.03551 -7.903737,-4.49834 -11.493979,-7.26425 0,0 35.847908,-22.69581 35.847908,-22.69581 l 0,0 c 3.321399,2.36825 6.765101,4.69093 10.672239,5.97613 5.533852,1.11838 11.186081,0.58612 16.803853,0.69558 5.76273,-0.0294 11.54013,-0.053 17.274932,-0.69041 6.174369,-0.82897 12.187309,-2.29944 18.029039,-4.49331 14.65802,-6.42617 3.53857,-1.67755 -31.205542,18.80893 -0.655405,0.38646 1.348956,-0.71544 1.96322,-1.16442 1.660258,-1.21351 3.101684,-2.71248 3.87254,-4.6313 2.731468,-4.51153 1.994777,-9.86217 2.043963,-14.93277 0.01161,-6.75701 0.03384,-13.51399 0.04967,-20.27099 0.0076,-9.08992 0.02677,-18.17991 7.5e-5,-27.2698 -0.01361,-7.69146 -0.185671,-15.41624 0.687049,-23.07207 0.841871,-5.93176 3.230616,-10.97237 5.854344,-16.29466 2.814429,-5.53235 6.040709,-10.80401 10.297779,-15.35072 1.53881,-2.86337 3.30651,-5.27412 6.19026,-6.93668 38.30386,-22.08325 24.09986,-18.48039 40.66875,-22.42008 5.13572,-1.41041 10.06068,-3.63039 15.5322,-3.13339 9.52852,0.64971 18.90538,2.56972 28.26935,4.37644 0,0 -34.86041,24.18093 -34.86041,24.18093 z"
       inkscape:connector-curvature="0" />
    <path
       style="fill:#ff00ff"
       id="path3007"
       d="m 399.68969,734.9718 c 10.08145,-3.48525 20.29663,-7.2272 31.01724,-7.85842 8.20308,1.13857 15.6303,5.85587 22.68899,10.01616 5.15432,3.17734 10.71195,5.78088 15.47993,9.53543 4.30729,2.62611 7.30722,6.78306 10.22212,10.80344 3.75244,6.35129 6.57008,13.09608 9.26923,19.93586 3.04249,8.38653 3.784,17.36059 5.10761,26.12825 1.19493,11.44246 2.16154,22.89526 3.47479,34.32824 1.37518,7.77262 2.44453,15.72184 5.47268,23.06117 1.92946,7.6685 8.75311,10.71659 15.15318,14.13775 5.83333,2.3012 11.41972,5.26059 17.54157,6.73962 8.38933,1.68424 16.80567,3.3021 25.16239,5.15869 10.44623,2.30276 21.08149,3.52726 31.74851,4.14009 2.7876,0.10308 4.98605,0.40715 7.70526,-0.27227 0.92202,-0.23038 3.45646,-1.57011 2.62992,-1.10105 -70.4588,39.9847 -38.22887,27.14978 -31.45452,15.49145 0,0 38.56289,-17.8192 38.56289,-17.8192 l 0,0 c -5.61872,20.21103 -31.92709,30.19365 -51.78867,28.29308 -10.73636,-0.86938 -21.40238,-2.44662 -31.93274,-4.72919 -8.56192,-1.72197 -17.19389,-3.13261 -25.69108,-5.15512 -6.16179,-2.02292 -12.03461,-4.88463 -17.90379,-7.61472 -7.09251,-3.91974 -14.40206,-8.2248 -16.76073,-16.54374 -3.17959,-7.74346 -4.34125,-16.05622 -5.73715,-24.26678 -1.20025,-11.37541 -2.34568,-22.74488 -3.48479,-34.12315 -1.3077,-8.44734 -2.02244,-17.09386 -4.79885,-25.2167 -2.56884,-6.50347 -5.05085,-12.98962 -8.86773,-18.90462 -2.74719,-3.68603 -5.53754,-7.34833 -9.55166,-9.75097 -4.79326,-3.39859 -10.05068,-6.14402 -15.05651,-9.21014 -6.52407,-3.71151 -13.34433,-8.20571 -21.12345,-7.8803 -10.46274,1.5439 -20.59715,4.87366 -30.31228,9.00951 0,0 33.22764,-26.33237 33.22764,-26.33237 z"
       inkscape:connector-curvature="0" />
    <path
       style="fill:#ff00ff"
       id="path3009"
       d="m 425.81589,650.78887 c 8.93916,-1.00033 18.03298,-1.35972 26.89872,0.34924 6.0158,1.30652 12.02333,2.12165 17.8953,3.95442 4.45541,2.35684 8.61519,5.19849 13.09543,7.50766 5.729,3.18517 11.93606,5.39848 17.96424,8.00547 7.24523,3.06655 13.7792,7.50184 20.70027,11.19616 5.81285,2.00178 10.56504,5.77486 15.4344,9.35557 4.78646,2.41455 8.26879,6.54333 11.5346,10.67042 4.12159,5.68885 6.93259,12.17201 9.85915,18.52156 2.8901,6.47174 5.82814,12.90504 8.10501,19.62429 2.53463,6.94292 4.22357,14.10425 5.20035,21.41857 0.85127,5.76006 0.36188,11.61423 0.9786,17.38171 0.4366,4.55385 2.17619,8.35085 4.9873,11.90432 3.30074,3.56669 7.66221,5.15453 11.85929,7.36057 5.60834,3.11822 11.98953,3.56494 18.09999,4.9766 7.04044,1.60521 14.26242,2.11492 21.4569,2.43879 0.92968,-0.15147 1.90853,-0.11983 2.78906,-0.4544 0.64912,-0.24664 2.27656,-1.58474 1.67317,-1.24106 -11.87242,6.76232 -23.6618,13.66939 -35.4927,20.50408 0,0 38.65328,-17.96637 38.65328,-17.96637 l 0,0 c -23.64885,15.26278 -24.17989,24.24874 -42.05954,23.87604 -7.33033,-0.51348 -14.65027,-1.30574 -21.82472,-2.95216 -6.48388,-1.21654 -12.90481,-2.65564 -18.74749,-5.87638 -4.83519,-2.3433 -9.43623,-4.72566 -12.96566,-8.92906 -3.1017,-4.18426 -5.46946,-8.5609 -6.03565,-13.82582 -0.94184,-5.77243 -0.21515,-11.6749 -0.92873,-17.48885 -0.75896,-7.07593 -2.1987,-14.03197 -4.75846,-20.69754 -2.12611,-6.60479 -5.11898,-12.8356 -7.88695,-19.18592 -2.81482,-6.01833 -5.32881,-12.28985 -9.3985,-17.59666 -3.16412,-3.86031 -6.65498,-7.25621 -11.03638,-9.73937 -4.6482,-3.5738 -9.55111,-6.64229 -14.97423,-8.93531 -6.72901,-3.81119 -13.29114,-7.99069 -20.49791,-10.87048 -6.10659,-2.70397 -12.49414,-4.78458 -18.24295,-8.23071 -4.17045,-2.32734 -8.18924,-5.02162 -12.64569,-6.77056 -5.70848,-1.62232 -11.63885,-2.30377 -17.4309,-3.57611 -8.77276,-1.01336 -17.57654,-0.72985 -26.31007,0.61153 0,0 34.05147,-25.32024 34.05147,-25.32024 z"
       inkscape:connector-curvature="0" />
    <path
       style="fill:#ff00ff"
       id="path3011"
       d="m 491.25119,569.75498 c 9.93418,-3.4681 20.30206,-2.76747 30.48426,-1.12905 7.17969,1.6395 13.97073,4.48121 21.00238,6.57869 5.33118,2.17549 10.49515,4.68235 15.78653,6.94928 7.44337,4.03699 14.21715,9.15698 20.91348,14.30533 7.23641,4.54117 13.61277,9.99889 19.49228,16.15559 4.49947,5.42048 8.63453,11.12122 12.21587,17.18742 4.33297,6.47378 5.8466,14.11024 6.94594,21.68375 0.73186,5.84361 2.7205,11.36294 4.91589,16.79064 2.43564,5.09756 3.97603,10.65547 6.84309,15.52921 3.85448,5.59974 9.62589,9.34413 15.63179,12.32447 8.43444,3.95269 17.31599,6.69465 26.18367,9.47714 1.40836,0.47458 10.15248,4.87201 11.26443,4.05946 0.48409,-0.35375 0.12614,-1.19249 0.18922,-1.78874 0,0 -33.32238,26.69469 -33.32238,26.69469 l 0,0 c -4.3931,-1.6684 -8.75843,-3.38447 -13.09533,-5.19705 -9.00437,-2.9996 -18.06227,-5.87959 -26.60694,-10.07252 -6.52876,-3.63782 -12.85934,-7.88939 -17.01738,-14.25201 -2.92199,-5.07595 -4.65712,-10.72009 -7.13844,-16.018 -2.41822,-5.73197 -4.40746,-11.65215 -5.33023,-17.82346 -0.84115,-7.07445 -2.05015,-14.17617 -6.17183,-20.17671 -3.38754,-5.79604 -7.35467,-11.21518 -11.65971,-16.36496 -5.75258,-5.95743 -12.08396,-11.10611 -18.99276,-15.69417 -6.52529,-4.91569 -13.19916,-9.73397 -20.56326,-13.33156 -5.14278,-2.29384 -10.31111,-4.5262 -15.5591,-6.5686 -6.74305,-2.27428 -13.42606,-4.82337 -20.45171,-6.1223 -10.00844,-1.31058 -19.94296,-0.96735 -29.45326,2.82443 0,0 33.4935,-26.02097 33.4935,-26.02097 z"
       inkscape:connector-curvature="0" />
    <path
       style="fill:#ff00ff"
       id="path3013"
       d="m 599.96082,467.40913 c 9.3693,-1.689 18.69761,-4.18699 28.2136,-2.64508 8.26707,2.61403 15.1605,8.65793 21.16843,14.75022 5.66706,5.66367 10.85998,11.39695 15.05669,18.2293 3.32111,5.68614 7.59175,10.74652 10.88727,16.43562 3.33951,4.50692 5.1178,9.8492 7.84444,14.71111 3.38901,5.94712 7.68609,10.51941 14.28011,12.5624 8.25158,2.05786 16.65606,0.36808 24.70997,-1.75822 4.9278,-1.45909 10.12068,-1.93361 14.88603,-3.95121 1.19212,-0.50473 4.5472,-2.47668 3.42239,-1.83584 -34.7749,19.81242 -43.56978,27.18754 -31.82482,17.56718 0,0 39.01976,-16.82898 39.01976,-16.82898 l 0,0 c -9.78924,19.91031 -38.59289,25.47457 -59.01429,30.59115 -8.76404,1.79367 -17.78437,3.02825 -26.40385,-0.15266 -6.96875,-3.19598 -11.96774,-8.38185 -15.79947,-15.02505 -2.77737,-4.83056 -4.72694,-10.06565 -7.91288,-14.65398 -3.21389,-5.68105 -7.43117,-10.74019 -10.73404,-16.37679 -4.00389,-6.53212 -9.05732,-11.99982 -14.46332,-17.42338 -5.50624,-5.41751 -11.78839,-10.96969 -19.61222,-12.33395 -9.31,-0.40722 -18.43821,1.89662 -27.4937,3.82007 0,0 33.7699,-25.68191 33.7699,-25.68191 z"
       inkscape:connector-curvature="0" />
    <path
       style="fill:#ff00ff"
       id="path3015"
       d="m 96.581915,593.57031 c -12.350592,-5.60339 -22.839917,-14.29506 -33.716402,-22.22114 -3.742976,-2.13425 -4.645365,-3.71838 -8.962647,-2.64303 -1.384576,0.34487 -5.064119,2.63039 -3.820018,1.93167 53.959352,-30.30473 36.806147,-23.87614 25.900195,-11.36594 -6.269203,7.86858 -9.741184,17.10628 -12.845056,26.52533 -2.433337,6.03569 -3.407048,12.45448 -4.70159,18.78856 -1.868717,7.4884 -3.537509,15.00275 -4.501503,22.66374 -0.660485,5.93345 -0.725032,11.90829 -0.765274,17.87124 0.357891,22.9633 -16.424135,21.14355 -40.758965,35.59879 -6.4919002,1.17881 -13.09731214,1.30694 -19.6748135,1.36804 -7.9361065,-0.63785 -13.2148465,-6.19727 -18.1046085,-11.90594 -4.894417,-6.53913 -8.981218,-13.63616 -11.232492,-21.49992 -0.281147,-1.52791 -0.562295,-3.05581 -0.843442,-4.58371 0,0 37.30210409,-19.83331 37.30210409,-19.83331 l 0,0 c 0.23473458,1.39986 0.46946915,2.79971 0.70420372,4.19957 1.93963979,7.29435 5.70849049,13.89318 10.33453919,19.84013 4.41723,4.99744 8.987008,9.18864 16.110068,8.78466 6.222,-0.17979 12.840808,-0.12617 18.462924,-3.11789 -11.355427,6.7762 -22.757099,13.4755 -34.066281,20.3286 -0.59433,0.36015 1.381456,-0.38716 1.907578,-0.84118 2.22879,-1.92333 1.83593,-6.55401 2.014635,-9.07897 0.02014,-6.11313 0.04701,-12.23649 0.617752,-18.32855 0.850055,-7.76447 2.341937,-15.41661 4.391127,-22.95752 1.18627,-6.52614 2.059938,-13.15912 4.469739,-19.38034 3.629391,-9.56213 6.251224,-19.49123 12.421984,-27.90977 13.204621,-17.55057 15.034281,-14.62339 46.339521,-30.91968 4.91796,-2.56009 10.999925,1.46402 14.736694,4.02301 10.748523,8.09459 21.458803,16.35753 33.933693,21.6868 0,0 -35.653665,22.97675 -35.653665,22.97675 z"
       inkscape:connector-curvature="0" />
    <path
       style="fill:#ff00ff"
       id="path3017"
       d="m 45.676039,403.15343 c -4.253786,-6.10343 -9.421742,-13.704 -17.415683,-14.55346 -13.143886,4.58097 -40.385251,21.37128 24.805687,-15.05866 1.390852,-0.77723 -2.692731,1.70518 -4.007986,2.60444 -1.407646,0.96243 -2.77241,1.98613 -4.158615,2.97919 -8.199297,5.68537 -14.987193,12.94502 -21.686197,20.25819 -4.877761,5.45792 -9.178324,11.41026 -12.52496,17.92261 -3.1372252,5.89872 -5.7481421,11.8764 -7.7183451,18.25527 -2.31752107,6.06878 -4.2771956,12.28316 -7.9362604,17.69523 -13.5073195,12.13388 -32.5367025,29.38354 -51.0709285,22.37551 -3.739265,-1.41387 -4.867854,-2.6952 -8.003849,-5.15 -8.343333,-6.9931 -13.463111,-16.56766 -18.478869,-26.02273 -2.735941,-4.97842 -3.608421,-10.35374 -3.976405,-15.92926 0,0 37.593454,-19.339 37.593454,-19.339 l 0,0 c 0.03759,5.01227 0.756272,9.77582 3.091135,14.29929 4.541939,9.00605 9.208234,18.11014 17.430148,24.35445 3.486163,2.29481 6.396931,3.94455 10.719277,3.88153 1.220488,-0.0178 4.654609,-1.13443 3.631788,-0.46829 -27.572301,17.95725 -45.644243,23.95587 -30.04129,18.58233 4.732096,-4.41511 6.135805,-10.45466 8.704544,-16.21847 2.134476,-6.43515 3.733568,-12.92478 7.465396,-18.70936 2.927125,-7.06509 7.356512,-13.29803 12.185825,-19.19823 6.7505097,-7.40604 13.2837608,-15.09394 21.432234,-21.03415 15.214906,-11.64285 28.319546,-17.97822 47.446965,-28.70124 1.723332,-0.96612 4.915911,-1.79102 6.910005,-1.83517 1.063211,-0.0236 2.110549,0.26356 3.165824,0.39534 8.300322,3.25773 14.032618,10.14805 19.095965,17.27821 0,0 -36.658859,21.33643 -36.658859,21.33643 z"
       inkscape:connector-curvature="0" />
    <path
       style="fill:#ff00ff"
       id="path3019"
       d="m 82.2962,282.14174 c -8.678879,-5.43872 -18.545124,-6.64813 -28.543689,-6.73621 -8.358132,0.18597 -16.618323,1.93359 -24.725001,3.88989 -6.596897,1.67423 -12.967473,3.86186 -19.7298999,4.86438 -6.3902279,1.56137 -12.5016652,3.91198 -18.6665625,6.15502 -6.7774626,2.78534 -13.8935276,4.71542 -20.9934666,6.47134 -8.72518,1.48555 -17.401637,3.07291 -26.20353,4.06549 -8.747071,1.25967 -16.031676,1.30575 -24.317881,-1.92787 -10.125343,-5.13939 -17.025404,-14.01082 -23.2857,-23.19155 -5.81875,-8.50822 -9.27977,-17.88961 -10.93492,-27.9886 -0.15401,-1.54889 -0.30803,-3.09778 -0.46205,-4.64667 0,0 37.455022,-19.51652 37.455022,-19.51652 l 0,0 c 0.122125,1.47101 0.244251,2.94202 0.366377,4.41303 1.325785,9.54212 4.318968,18.43382 9.841798,26.44437 5.757042,8.50074 12.290428,16.73719 22.065506,20.74428 7.632163,2.19535 15.309548,1.47699 23.114624,0.44833 8.715687,-1.14387 17.3948023,-2.68428 25.9653146,-4.63094 7.0061804,-2.02733 14.0587924,-3.89483 20.7806844,-6.78199 6.250132,-2.29886 12.611438,-4.38085 19.169409,-5.60746 6.571405,-1.37362 12.901106,-3.62869 19.487925,-4.94464 8.306562,-1.81035 16.803187,-3.28777 25.3339,-2.97481 10.553007,0.61672 20.75035,3.00895 29.93581,8.47438 0,0 -35.65367,22.97675 -35.65367,22.97675 z"
       inkscape:connector-curvature="0" />
    <path
       style="fill:#ff00ff"
       id="path3021"
       d="m 582.96147,352.60859 c 18.05356,-10.96149 3.43104,-2.13213 45.71582,-26.45488 7.63062,-4.38922 13.61435,-6.76311 22.09415,-9.09454 8.9911,-2.43698 15.92482,-2.23557 23.96284,2.41308 5.21761,2.86651 9.4572,7.09463 14.84442,9.67672 5.33719,2.55366 9.80113,5.71016 13.81348,10.07852 4.73754,6.06427 10.68841,10.872 16.69369,15.6026 7.14749,5.7262 13.69789,12.15514 20.68414,18.07584 6.22417,5.88724 13.70569,9.80834 21.55924,13.0161 5.54539,2.07815 11.44824,2.40001 17.30161,2.57384 6.55098,0.003 13.11888,0.38385 19.62615,-0.4495 9.82814,-2.34253 18.92351,-6.96758 27.98003,-11.32278 13.884,-5.61449 39.01229,-19.0771 -21.69129,13.48079 -1.10832,0.59444 2.01418,-1.52592 2.87723,-2.44073 0.66549,-0.70539 1.11449,-1.58736 1.67173,-2.38104 0,0 38.60861,-17.52798 38.60861,-17.52798 l 0,0 c -7.01306,20.6036 -35.59612,25.70406 -54.35512,35.06504 -9.31784,4.35865 -18.77226,9.04919 -29.10369,10.31433 -6.68833,0.38185 -13.39883,0.29041 -20.09259,0.0504 -6.20306,-0.43169 -12.37145,-1.29453 -18.0983,-3.87864 -8.01633,-3.68243 -15.56457,-8.09093 -22.03857,-14.17909 -6.96413,-5.88801 -13.57049,-12.1932 -20.67615,-17.90714 -6.17297,-4.86922 -12.21815,-9.88909 -17.21153,-16.0111 -3.79503,-3.89544 -8.26338,-6.43751 -13.08899,-8.89794 -5.11655,-2.95411 -9.5154,-6.94778 -14.76076,-9.68539 -7.13842,-3.22381 -14.42662,-2.24271 -21.79736,0.0338 -5.73805,1.86441 -11.00504,3.97253 -16.31205,6.86707 -1.75113,0.9551 -6.92901,3.95549 -5.20608,2.95041 36.65134,-21.38072 40.46297,-23.7195 26.54462,-15.30685 0,0 -39.54528,15.33903 -39.54528,15.33903 z"
       inkscape:connector-curvature="0" />
    <path
       style="fill:#ff00ff"
       id="path3023"
       d="m 556.59,232.47199 c 5.02748,-7.4611 9.94981,-14.9577 17.1427,-20.48858 19.94998,-12.72457 34.32031,-26.01209 56.60229,-23.18555 6.16818,0.9143 12.32489,1.76693 18.00392,4.44516 4.82703,2.33929 9.91792,4.01623 14.84176,6.11126 5.12965,3.63824 10.98545,5.78952 16.52844,8.60635 4.49831,1.65484 8.93759,3.54175 13.5417,4.90861 5.21476,0.82208 8.91629,4.86403 13.4641,7.22242 6.16593,3.06213 12.85744,5.03964 19.53914,6.63881 5.74012,2.57455 11.74866,3.67049 17.96102,4.23899 6.46854,0.68447 12.7964,2.1151 19.30678,2.65559 7.32088,0.51036 14.66288,0.55998 21.99819,0.59391 7.23822,0.34481 14.32824,-0.21434 21.3538,-1.9775 11.24591,-3.14611 22.07238,-7.35636 32.45306,-12.70943 17.40836,-10.55715 -7.67648,4.71892 -27.34495,15.31943 -1.15224,0.62101 2.0636,-1.61789 3.00791,-2.5243 2.32784,-2.23441 3.6529,-4.63787 4.8839,-7.55996 1.0271,-2.58172 0.90737,-4.88635 0.44513,-7.53761 0,0 37.38988,-20.11237 37.38988,-20.11237 l 0,0 c 0.8649,3.25687 1.55432,6.25527 0.58637,9.61017 -5.91173,22.40561 -33.46353,28.24974 -51.79869,39.01906 -10.74277,4.97409 -21.77029,9.36326 -33.32832,12.06063 -7.27681,1.23168 -14.5547,1.61577 -21.93372,1.28235 -7.4084,-0.0774 -14.82312,-0.21207 -22.20491,-0.904 -6.50707,-0.70311 -12.88844,-2.14834 -19.41564,-2.67772 -6.29163,-0.8677 -12.2905,-2.53729 -18.24045,-4.75653 -6.93859,-1.91615 -13.90151,-4.00678 -20.25013,-7.47017 -4.24272,-2.51847 -8.06819,-5.65361 -13.07482,-6.52361 -4.63725,-1.69739 -9.35045,-3.24096 -13.79439,-5.40582 -5.58972,-2.56743 -10.91384,-5.52796 -16.3578,-8.36718 -5.02463,-1.89701 -9.96706,-3.98028 -14.88449,-6.14105 -5.53035,-1.93895 -11.33386,-2.79601 -17.15046,-3.38379 -20.0748,-0.29617 -38.52818,15.49916 17.35341,-16.85933 -8.00544,4.27566 -12.87033,11.33436 -17.81566,18.75536 0,0 -38.80907,17.1164 -38.80907,17.1164 z"
       inkscape:connector-curvature="0" />
    <path
       style="fill:#ff00ff"
       id="path3025"
       d="m 421.0945,224.63343 c 0.55906,-8.94685 1.58394,-17.84038 3.77193,-26.54014 1.98051,-6.92435 6.42601,-12.35644 11.18158,-17.56965 3.36071,-3.54611 7.30691,-6.53781 11.53384,-8.98353 39.44746,-22.82439 25.23973,-17.2351 42.43276,-23.77107 2.24827,-1.79222 5.11609,-2.31171 7.63848,-3.4866 0.7197,-0.33522 2.7123,-1.65109 2.02256,-1.25791 -33.77818,19.25459 -45.45016,26.94428 -32.21915,18.29417 7.2556,-4.38384 13.27089,-10.44309 19.57588,-16.03651 17.67779,-14.54269 38.68276,-24.21973 58.5134,-35.41804 5.34743,-3.14276 10.759,-5.43375 16.87787,-6.48761 5.6536,-2.3404 11.82443,-3.01553 17.81353,-4.142788 13.67954,-2.323226 27.36778,-4.540388 41.14327,-6.244375 9.56466,-1.439661 19.02213,-1.714715 28.60282,-0.662985 8.7564,0.974043 17.55074,1.48129 26.3542,1.737606 7.93227,1.202683 15.88452,2.12665 23.89175,2.622081 8.765,0.428562 17.54402,0.430687 26.31733,0.429023 8.16581,0.402796 16.03938,-1.57496 23.66731,-4.27184 8.05274,-2.638339 15.86465,-5.992712 23.55205,-9.557334 1.36333,-0.733581 2.74394,-1.435903 4.08997,-2.200744 1.53351,-0.871368 3.01651,-1.82947 4.54666,-2.706735 23.44411,-13.441003 -45.92247,26.991851 -21.14876,12.106633 1.90391,-1.143958 3.79449,-2.309956 5.69173,-3.464935 17.04247,-11.741037 32.79197,-25.278391 47.72112,-39.583477 8.86378,-8.421705 16.16207,-18.077444 21.24221,-29.177482 3.65748,-10.1586045 5.29864,-20.951786 6.74466,-31.618002 0.0618,-1.286021 0.12353,-2.572041 0.1853,-3.858062 0,0 37.75744,-19.06897 37.75744,-19.06897 l 0,0 c -0.0352,1.429083 -0.0703,2.858165 -0.10549,4.287248 -1.49385,10.971343 -3.30345,21.964335 -6.21964,32.65088183 C 869.35447,12.593566 862.38966,22.638774 853.00538,31.63581 c -14.79632,14.383177 -30.45402,27.818957 -46.94726,40.223375 -21.21838,13.476822 -43.03716,26.134528 -65.36728,37.670985 -7.82802,3.44478 -15.74239,6.75849 -23.93563,9.24206 -7.95792,2.29097 -16.06272,3.60104 -24.38387,3.15556 -8.85888,-0.0597 -17.73251,0.004 -26.57499,-0.60188 -7.94911,-0.6551 -15.82852,-1.84745 -23.77245,-2.52013 -8.83666,-0.37981 -17.64761,-1.08655 -26.44905,-1.96199 -9.29927,-0.69839 -18.55308,0.0616 -27.8006,1.2013 -13.84656,1.72216 -27.5951,4.01368 -41.28064,6.73602 -6.01081,1.26967 -12.01443,2.42714 -17.86371,4.32754 -5.71468,1.65398 -10.8604,4.50287 -16.08544,7.30528 -14.61979,7.4076 -2.37704,1.28472 29.2235,-17.29049 1.29924,-0.76371 -2.67004,1.40209 -3.96226,2.17762 -2.8743,1.72502 -5.04433,3.34403 -7.76303,5.29197 -1.31704,0.94366 -2.63119,1.89136 -3.94678,2.83704 -6.41299,5.41214 -12.19081,11.59024 -19.00567,16.50712 -16.50454,9.92891 -32.69224,20.4098 -50.32635,28.15188 -14.25349,7.12489 -4.9909,2.57052 30.32313,-17.85305 3.63618,-2.10295 -15.55779,9.32222 -11.98317,7.85775 -4.41532,5.0212 -9.42415,9.50576 -12.02033,15.84199 -2.63682,8.24882 -3.61099,16.81162 -4.178,25.432 0,0 -37.811,19.26567 -37.811,19.26567 z"
       inkscape:connector-curvature="0" />
    <path
       style="fill:#ff00ff"
       id="path3027"
       d="m 227.04628,255.85164 c 1.50771,-10.64084 1.04488,-21.44906 -0.35251,-32.06878 -1.07968,-6.86962 -4.67517,-12.75306 -7.69672,-18.8786 -3.93605,-9.15205 -9.67883,-13.13727 -18.75874,-16.58755 -8.94086,-3.80776 -18.50225,-5.27258 -28.11054,-6.06859 -7.74853,-0.57008 -15.39259,-1.98488 -23.14951,-2.60711 -8.25714,-0.5383 -16.53539,-0.52565 -24.80579,-0.58908 -10.2703,-0.0682 -20.54066,-0.0398 -30.81109,-0.0266 -8.976665,0.0631 -17.952447,0.0607 -26.928996,0.003 -9.471185,0.26053 -18.988612,-0.51391 -28.454771,-0.11304 -4.86367,0.20597 -13.328073,1.2266 -18.168221,1.76288 -13.3264048,1.67904 -26.6592394,3.17332 -40.080162,3.77532 -13.455354,0.34035 -26.917634,0.24694 -40.376247,0.25881 -16.156107,0.0939 -23.03298,-3.82835 -36.05425,-12.67477 -10.811483,-7.92947 -22.387343,-14.66904 -33.886373,-21.5218 -9.47938,-4.23117 -16.5916,-11.35279 -23.52361,-18.82925 -3.43155,-5.46948 -7.5766,-10.93054 -9.53374,-17.18629 -1.2659,-4.04628 -1.6529,-8.03707 -2.24901,-12.21373 -0.21102,-2.09462 -0.42204,-4.189247 -0.63306,-6.283873 0,0 37.24524,-19.421493 37.24524,-19.421493 l 0,0 c 0.17961,2.039801 0.35922,4.079603 0.53883,6.119404 1.53837,11.184018 3.81548,17.933812 10.69642,27.067322 6.68248,7.17701 13.77954,13.62148 22.722518,17.92916 11.506678,6.93519 23.01914,13.85848 33.915319,21.74379 3.572564,2.33675 7.502593,5.1108 11.421323,6.88906 7.329142,3.32584 15.322919,3.53004 23.222226,3.76404 13.479874,0.002 26.96717732,0.0264 40.437097,-0.56139 13.225077,-0.73101 26.386486,-2.16786 39.545091,-3.65962 15.746164,-1.53295 31.479227,-1.79968 47.295446,-1.60577 8.98267,-0.0593 17.96466,-0.0689 26.94751,-0.0192 10.30733,-0.002 20.61469,-0.009 30.92189,-0.0189 8.36063,0.036 16.73119,0.18213 25.06907,0.83969 7.72416,0.77989 15.37455,2.12895 23.1228,2.67876 9.84672,1.16886 19.56676,3.14237 28.69629,7.16035 9.61318,4.28046 16.16739,9.2074 20.49018,19.06045 3.32442,6.52744 7.20038,12.7639 8.27794,20.17479 1.39884,10.88245 1.90541,21.91366 1.02769,32.86408 0,0 -38.01954,18.84494 -38.01954,18.84494 z"
       inkscape:connector-curvature="0" />
    <path
       style="fill:#ff00ff"
       id="path3029"
       d="m 245.61268,831.07835 c -9.19359,0.77787 -18.34716,1.23142 -27.3886,3.10348 -13.02368,6.55935 -31.73346,17.1415 28.68077,-16.5402 0.63157,-0.3521 -2.76959,1.7086 -5.04636,5.32032 -1.58469,4.25942 1.4751,8.76196 3.20341,12.62685 2.58026,5.38228 7.18423,7.41252 12.26292,9.73913 6.15303,1.47828 11.13422,4.21472 15.92861,8.28401 4.88931,4.62301 7.99669,10.20563 9.88714,16.59245 1.23192,6.50083 2.32767,13.03413 3.12516,19.60646 1.44257,8.15497 2.74311,16.3042 3.39664,24.56382 0.029,7.24767 1.23713,14.35934 2.27815,21.50431 0.70537,7.89223 -2.67395,15.29612 -5.7573,22.36753 -2.90098,7.70158 -7.12426,14.53796 -12.31651,20.86893 -5.75926,6.64113 -12.84612,11.87713 -19.81493,17.15378 -12.87637,7.08028 -25.75274,14.16048 -38.62912,21.24078 0,0 33.783,-25.90967 33.783,-25.90967 l 0,0 c -11.54611,6.72725 -23.09221,13.45447 -34.63832,20.18177 7.3497,-4.5755 14.14429,-10.246 20.36126,-16.25377 5.48661,-5.75581 9.99221,-12.22153 12.83157,-19.7034 2.94158,-6.37114 6.29279,-13.07513 6.65341,-20.16637 -0.96264,-7.25545 -2.38715,-14.44999 -2.28119,-21.80465 -0.58559,-8.20149 -1.68575,-16.3284 -3.35578,-24.38455 -0.72716,-6.37551 -2.03192,-12.62905 -2.93043,-18.97279 -1.44631,-5.64186 -4.10729,-10.45002 -8.54527,-14.34072 -4.66487,-3.61127 -9.86474,-5.41628 -15.37917,-7.39145 -5.87261,-2.77523 -10.7911,-6.35436 -13.81885,-12.3069 -2.27369,-4.89849 -5.45593,-10.17618 -4.87993,-15.69311 0.68479,-2.46254 1.80787,-6.11161 4.18144,-7.57527 12.54441,-7.73553 28.19294,-20.78685 44.62457,-24.51956 9.15615,-1.47235 18.45072,-1.62764 27.63518,-2.91145 0,0 -34.05147,25.32024 -34.05147,25.32024 z"
       inkscape:connector-curvature="0" />
    <path
       style="fill:#ff00ff"
       id="path3031"
       d="m 391.23547,818.88265 c 3.99686,8.53972 7.01128,17.44616 8.99169,26.6546 1.24845,6.20744 1.83555,12.41459 0.36228,18.60664 -1.39786,4.61729 -4.10651,8.41188 -6.86212,12.27941 -3.58459,4.23356 -7.13572,8.42612 -10.20606,13.05898 -3.24334,5.09937 -3.98605,10.94771 -4.4487,16.83431 -0.58104,7.75741 0.599,15.4857 2.40056,23.00832 2.13398,5.96409 3.87703,12.04647 5.80232,18.07801 2.29646,5.63675 5.08477,11.1738 8.39526,16.28981 2.29204,3.10883 4.59139,7.35635 8.16195,9.25285 1.09221,0.58012 2.36609,0.7293 3.51603,1.18439 1.53148,0.60608 3.0134,1.3306 4.5201,1.9959 9.24826,3.50159 18.96223,5.33997 28.77038,6.29177 6.87849,0.51962 13.78294,0.44984 20.67565,0.41914 4.73742,-0.007 2.36127,-6.7e-4 7.12846,-0.0188 0,0 -34.26549,24.91494 -34.26549,24.91494 l 0,0 c -4.78342,0.018 -2.39482,0.01 -7.16581,0.029 -6.97073,-0.025 -13.96356,-0.017 -20.89349,-0.8752 -10.02569,-1.382 -19.9183,-3.6526 -29.3544,-7.38049 -2.29762,-0.97071 -6.82307,-2.75653 -8.94488,-4.14876 -3.75068,-2.46102 -6.24336,-6.7653 -8.82226,-10.28444 -3.42249,-5.48289 -6.42501,-11.29552 -8.92952,-17.24913 -1.93259,-6.13903 -3.65312,-12.33409 -5.88222,-18.37875 -1.89955,-7.88826 -3.25874,-15.96665 -2.96015,-24.11377 0.22939,-6.37988 0.64523,-12.79987 3.48216,-18.64928 2.67198,-4.89504 5.87066,-9.61356 10.01936,-13.37868 2.68681,-3.63375 5.66613,-6.96096 7.2788,-11.22229 2.9251,-5.06149 1.62813,-11.0786 0.91019,-16.59098 -1.65548,-8.89806 -4.31955,-17.57313 -8.55978,-25.60837 0,0 36.87969,-20.99871 36.87969,-20.99871 z"
       inkscape:connector-curvature="0" />
    <path
       style="fill:#ff00ff"
       id="path3033"
       d="m 318.23736,241.77629 c 0.21692,-10.42232 0.13429,-20.84831 0.13846,-31.27228 0.0157,-10.13362 -0.002,-20.26726 -0.0565,-30.40075 0.001,-7.60137 -0.045,-15.20265 -0.071,-22.80396 0.0129,-6.96032 0.0169,-13.92065 0.0208,-20.88098 -0.55705,-8.06963 1.18313,-15.88818 3.47526,-23.5666 1.75537,-6.66905 5.08357,-12.11551 10.10547,-16.756019 19.4141,-14.133669 32.54457,-22.118178 53.0134,-26.397076 6.36635,-1.726997 12.28472,-4.652287 17.86473,-8.12639 5.13928,-2.799932 10.9483,-3.892863 16.5401,-5.451234 8.4412,-2.656049 16.7625,-5.57568 24.82651,-9.233334 1.98737,-0.948624 3.98058,-1.885106 5.96211,-2.845873 2.05032,-0.994119 4.12178,-1.948067 6.13321,-3.018681 2.0689,-1.101206 8.13251,-4.663721 6.1018,-3.493587 -57.46573,33.11278 -28.54295,16.848865 -16.25363,8.299658 17.76012,-12.136414 31.87344,-28.33317 45.92614,-44.393705 9.58796,-11.463096 18.09948,-23.760063 25.24554,-36.878847 4.93068,-9.318173 8.39896,-19.313937 11.42474,-29.385201 2.86857,-10.252008 3.46189,-20.902128 3.86931,-31.480495 0.006,-5.687366 1.04536,-11.467226 -1.29362,-16.778636 0,0 36.8979,-20.79917 36.8979,-20.79917 l 0,0 c 0.60258,1.33346 1.44164,2.58362 1.80773,4.00038 1.21504,4.70205 -0.22143,9.8268 0.21,14.57567 -0.35224,10.86192 -0.87295,21.797863 -3.42525,32.406277 -2.83143,10.367814 -6.3712,20.593349 -11.14628,30.234322 -7.08643,13.564243 -15.73556,26.173874 -25.44343,38.007155 -14.04634,16.0434123 -27.79186,32.624452 -45.25089,45.140307 -22.75568,16.956538 -48.03912,30.463286 -73.71179,42.477541 -8.34084,3.479767 -16.84646,6.519666 -25.51778,9.077893 -5.4892,1.634711 -11.06345,2.979711 -15.89672,6.231482 -5.92376,3.092407 -12.05663,5.772218 -18.62505,7.185691 -16.51866,4.435589 -42.17872,18.421222 20.15679,-15.102162 -5.48211,3.50577 -9.51127,8.102423 -11.15666,14.547159 -2.84728,7.078405 -4.51796,14.645715 -4.09237,22.290275 0.004,6.95325 0.008,13.9065 0.0208,20.85975 -0.0259,7.62542 -0.0723,15.2508 -0.071,22.87628 -0.0542,10.15267 -0.0723,20.30549 -0.0565,30.45829 0.004,10.37693 -0.0795,20.75594 0.13845,31.13118 0,0 -37.81099,19.26567 -37.81099,19.26567 z"
       inkscape:connector-curvature="0" />
    <path
       style="fill:#ff00ff"
       id="path3035"
       d="m 304.89137,241.232 c 4.44412,-7.99222 6.82475,-16.78096 9.30023,-25.50596 1.92369,-6.06956 3.44555,-12.31165 3.49159,-18.70147 -0.6067,-5.75952 -1.43966,-11.48378 -1.88291,-17.26149 0.15771,-5.17757 -1.07105,-10.14146 -2.01529,-15.18144 -0.93575,-5.39924 -1.10471,-10.88511 -1.22862,-16.35074 -0.75259,-5.58133 -1.47292,-11.20184 -2.53351,-16.73651 -1.7204,-6.75949 -2.86353,-13.70438 -5.69337,-20.10856 -3.04931,-6.00289 -8.27912,-10.23745 -13.52849,-14.247315 -6.22923,-3.60374 -13.02061,-6.02959 -19.60467,-8.867333 -6.19239,-1.83681 -10.78546,-5.926518 -15.29358,-10.339357 -4.96004,-5.083286 -10.16467,-9.875112 -15.0563,-15.029572 -6.50148,-6.629226 -13.20078,-13.068149 -19.78587,-19.621009 -5.16162,-4.521025 -10.53948,-8.858258 -16.06545,-12.929729 -4.8264,-4.381055 -7.70459,-10.34671 -10.86042,-15.938203 -3.77779,-7.3884448 -8.154,-14.45901546 -11.80039,-21.9144667 -2.85983,-6.6700593 -4.56037,-13.6968213 -5.58589,-20.8579183 -1.12964,-10.449401 -1.14502,-20.978005 -1.22323,-31.475791 -0.5182,-13.174661 0.33466,-26.21906 2.06199,-39.269662 1.27781,-10.749264 2.60235,-21.461284 4.43561,-32.129514 1.24591,-7.18764 1.67466,-14.46751 1.87685,-21.74737 0.0178,-1.12535 0.0355,-2.2507 0.0533,-3.37605 0,0 37.80063,-19.18822 37.80063,-19.18822 l 0,0 c -0.0166,1.14104 -0.0332,2.28208 -0.0498,3.42311 -0.17295,7.46848 -0.43197,14.94773 -1.69914,22.32828 -1.77153,10.70983 -3.80868,21.35438 -4.84409,32.18111 -1.79745,12.84788 -2.79952,25.652071 -2.14767,38.642675 0.0748,10.303385 0.0922,20.633946 1.14067,30.894804 0.91523,6.750105 2.55,13.324758 5.02198,19.681401 3.47604,7.430559 7.82813,14.401293 11.63003,21.660302 2.93187,5.0822352 5.57353,10.5612487 10.14852,14.4063138 5.46218,4.3827232 11.00787,8.7013752 16.03881,13.5809712 6.61392,6.600321 13.46848,12.959012 20.05198,19.584526 4.86669,5.078131 9.97022,9.898808 14.94933,14.864283 4.28359,3.990468 8.83488,7.21912 14.48952,9.016599 6.90881,2.825634 13.81386,5.833542 20.1249,9.845437 5.7644,4.507769 11.31398,9.349877 14.65508,16.008286 2.98861,6.654469 4.23511,13.853562 6.17729,20.859852 1.32394,5.73912 1.70838,11.67045 2.92265,17.44288 0.0834,5.25239 0.1731,10.52509 0.95609,15.7299 0.90004,5.19862 2.4422,10.27845 2.18209,15.61523 0.36726,5.82744 1.07833,11.6101 1.92612,17.38646 0.52651,6.80986 -1.01296,13.54558 -2.93609,20.05822 -3.02882,8.66125 -4.66029,17.83677 -8.93476,26.07348 0,0 -38.66566,17.49356 -38.66566,17.49356 z"
       inkscape:connector-curvature="0" />
  </g>
</svg>
